<?xml version="1.0" encoding="utf-8"?>
<!-- Generator: Adobe Illustrator 25.2.0, SVG Export Plug-In . SVG Version: 6.00 Build 0)  -->
<svg version="1.1" id="Layer_1" xmlns="http://www.w3.org/2000/svg" xmlns:xlink="http://www.w3.org/1999/xlink" x="0px" y="0px"
	 viewBox="0 0 1000 1000" style="enable-background:new 0 0 1000 1000;" xml:space="preserve">
<style type="text/css">
	.st0{fill:#009245;}
	.st1{fill:#223462;}
	.st2{font-family:'Apple-Chancery';}
	.st3{font-size:33.1593px;}
</style>
<g>
	<path class="st0" d="M137.7,642.8l-4.33,10.67c-0.5,1.22-0.89,2.42-1.16,3.61c-0.27,1.19-0.41,2.35-0.41,3.48
		c0,2.59,0.76,4.52,2.29,5.77c1.53,1.26,3.86,1.88,7,1.88h3.45v6.84h-35.2v-6.78c3.39-0.17,6.27-1.36,8.63-3.58
		c2.36-2.22,4.76-6.04,7.18-11.48l31.31-70.72h17.76l28.93,74.42c1.55,3.93,3.31,6.74,5.3,8.44c1.99,1.69,4.63,2.65,7.94,2.85v6.84
		H168.2v-6.78c5.23-0.17,8.74-0.64,10.54-1.41c1.8-0.77,2.7-2.12,2.7-4.05c0-0.54-0.17-1.37-0.5-2.48
		c-0.34-1.11-0.94-2.83-1.82-5.18l-4.64-12.36H137.7z M141.09,635.33h30.43l-14.37-37.15L141.09,635.33z"/>
	<path class="st0" d="M247.19,657.29c0,5.23,0.5,8.42,1.5,9.57c1.01,1.15,3.03,1.79,6.09,1.91v6.27h-37.52v-6.27
		c3.97-0.17,6.56-0.85,7.75-2.04c1.19-1.19,1.79-4.34,1.79-9.44v-59.11c0-5.02-0.57-8.12-1.72-9.29c-1.15-1.17-3.76-1.88-7.81-2.13
		v-6.27h3.7c4.56,0,9.02-0.21,13.4-0.63c4.37-0.42,8.65-1.02,12.83-1.82V657.29z"/>
	<path class="st0" d="M290.49,657.29c0,5.23,0.5,8.42,1.5,9.57c1.01,1.15,3.03,1.79,6.09,1.91v6.27h-37.52v-6.27
		c3.97-0.17,6.56-0.85,7.75-2.04c1.19-1.19,1.79-4.34,1.79-9.44v-59.11c0-5.02-0.57-8.12-1.72-9.29c-1.15-1.17-3.76-1.88-7.81-2.13
		v-6.27h3.7c4.56,0,9.02-0.21,13.4-0.63c4.37-0.42,8.65-1.02,12.83-1.82V657.29z"/>
	<path class="st0" d="M362.02,642.8l-4.33,10.67c-0.5,1.22-0.89,2.42-1.16,3.61c-0.27,1.19-0.41,2.35-0.41,3.48
		c0,2.59,0.76,4.52,2.29,5.77c1.53,1.26,3.86,1.88,7,1.88h3.45v6.84h-35.2v-6.78c3.39-0.17,6.27-1.36,8.63-3.58
		c2.36-2.22,4.76-6.04,7.18-11.48l31.31-70.72h17.76l28.93,74.42c1.55,3.93,3.31,6.74,5.3,8.44c1.99,1.69,4.63,2.65,7.94,2.85v6.84
		h-48.19v-6.78c5.23-0.17,8.74-0.64,10.54-1.41c1.8-0.77,2.7-2.12,2.7-4.05c0-0.54-0.17-1.37-0.5-2.48
		c-0.34-1.11-0.94-2.83-1.82-5.18l-4.64-12.36H362.02z M365.41,635.33h30.43l-14.37-37.15L365.41,635.33z"/>
	<path class="st0" d="M468.57,578.04v34.2c2.8-3.22,5.86-5.62,9.16-7.18c3.31-1.57,6.9-2.35,10.79-2.35c8.62,0,15.58,3.4,20.89,10.2
		c5.31,6.8,7.97,15.82,7.97,27.07c0,11.67-2.76,20.78-8.28,27.33c-5.52,6.55-13.15,9.82-22.9,9.82c-5.31,0-9.99-1.01-14.02-3.04
		s-7.85-5.3-11.45-9.82L453,677.12h-4.89v-82.39c0-2.97-0.53-5.04-1.6-6.21c-1.07-1.17-2.92-1.76-5.55-1.76h-2.2v-6.27h3.7
		c4.52,0,8.95-0.21,13.3-0.63C460.11,579.44,464.38,578.84,468.57,578.04z M468.57,640.35c0,10.63,1.07,18.1,3.2,22.43
		c2.13,4.33,5.69,6.49,10.67,6.49c4.64,0,7.93-2.07,9.85-6.21c1.92-4.14,2.89-11.59,2.89-22.34c0-10.5-1.05-18.01-3.14-22.53
		c-2.09-4.52-5.5-6.78-10.23-6.78c-4.77,0-8.17,2.15-10.2,6.46C469.58,622.2,468.57,629.68,468.57,640.35z"/>
	<path class="st0" d="M562.25,602.83c10.29,0,18.58,3.39,24.88,10.16c6.29,6.78,9.44,15.77,9.44,26.98
		c0,11.09-3.17,20.05-9.51,26.89c-6.34,6.84-14.61,10.26-24.82,10.26c-10.21,0-18.48-3.42-24.82-10.26
		c-6.34-6.84-9.51-15.8-9.51-26.89c0-11.21,3.14-20.2,9.41-26.98C543.61,606.22,551.91,602.83,562.25,602.83z M562.12,670.53
		c4.18,0,7.15-2.26,8.91-6.78c1.76-4.52,2.64-12.45,2.64-23.78c0-11.25-0.87-19.17-2.6-23.75c-1.74-4.58-4.63-6.87-8.69-6.87
		c-4.14,0-7.08,2.25-8.82,6.74c-1.74,4.5-2.61,12.46-2.61,23.88c0,11.34,0.85,19.26,2.54,23.78
		C555.18,668.27,558.06,670.53,562.12,670.53z"/>
	<path class="st0" d="M656.18,661.43c-2.09,4.48-5.1,8.01-9.04,10.6c-3.93,2.59-8.24,3.89-12.93,3.89c-7.11,0-12.34-2.22-15.69-6.65
		c-3.35-4.43-5.02-11.38-5.02-20.83v-25.85c0-5.19-0.59-8.38-1.79-9.57c-1.19-1.19-3.71-1.85-7.56-1.98v-6.15h2.57
		c4.81,0,9.48-0.17,13.99-0.5c4.52-0.34,8.97-0.86,13.36-1.57v44.86c0,6.86,0.6,11.68,1.79,14.46s3.17,4.17,5.93,4.17
		c1.59,0,3.12-0.46,4.58-1.38c1.46-0.92,2.76-2.22,3.89-3.89c1.59-2.34,2.72-5.1,3.39-8.28c0.67-3.18,1-8.78,1-16.82v-13.36
		c0-5.1-0.6-8.26-1.79-9.48c-1.19-1.21-3.77-1.9-7.75-2.07v-6.15h2.57c4.81,0,9.51-0.18,14.09-0.53c4.58-0.36,9.04-0.87,13.4-1.54
		v54.47c0,5.23,0.6,8.42,1.82,9.57c1.21,1.15,3.74,1.79,7.59,1.91v6.27h-2.45c-4.6,0-9.07,0.17-13.4,0.5
		c-4.33,0.33-8.52,0.85-12.58,1.57V661.43z"/>
	<path class="st0" d="M699.1,611.42h-9.6v-6.53c5.48-1.21,10.14-3.99,13.99-8.34c3.85-4.35,7.07-10.52,9.66-18.51h6.28v26.86h18.13
		v6.53H719.3v41.79c0,3.64,0.52,6.29,1.57,7.94c1.05,1.65,2.74,2.48,5.08,2.48c2.76,0,4.87-0.97,6.34-2.92
		c1.46-1.94,2.2-4.74,2.2-8.38v-1.69h6.4v1.69c0,8.12-1.82,14.27-5.46,18.48c-3.64,4.2-8.97,6.31-16,6.31
		c-6.61,0-11.65-1.81-15.12-5.43c-3.47-3.62-5.21-8.88-5.21-15.78V611.42z"/>
	<path class="st0" d="M832.31,582.5v6.72l-3.7,0.25c-3.18,0.21-5.36,1.04-6.56,2.48s-1.79,4.95-1.79,10.51v52.71
		c0,5.52,0.59,9,1.76,10.45c1.17,1.44,3.37,2.27,6.59,2.48l3.7,0.31v6.65h-47.37v-6.65l3.89-0.31c3.14-0.21,5.28-1.01,6.43-2.41
		c1.15-1.4,1.72-4.91,1.72-10.51v-52.71c0-5.65-0.58-9.17-1.72-10.57c-1.15-1.4-3.32-2.2-6.49-2.41l-3.83-0.25v-6.72H832.31z"/>
	<path class="st0" d="M848.87,611.42h-9.6v-6.53c5.48-1.21,10.14-3.99,13.99-8.34c3.85-4.35,7.07-10.52,9.66-18.51h6.28v26.86h18.13
		v6.53h-18.26v41.79c0,3.64,0.52,6.29,1.57,7.94c1.05,1.65,2.74,2.48,5.08,2.48c2.76,0,4.87-0.97,6.34-2.92
		c1.46-1.94,2.2-4.74,2.2-8.38v-1.69h6.4v1.69c0,8.12-1.82,14.27-5.46,18.48c-3.64,4.2-8.97,6.31-16,6.31
		c-6.61,0-11.65-1.81-15.12-5.43c-3.47-3.62-5.21-8.88-5.21-15.78V611.42z"/>
</g>
<g>
	<polygon class="st0" points="397.56,358.47 495.86,358.47 449.44,238.48 	"/>
	<path class="st0" d="M346.07,416.24L447.21,187.8h0.33c-52.26-42.88-124.78-55.55-124.78-55.55v288.09c0,0,6.94,2.38,18.06,6.86
		C342.57,423.79,344.32,420.16,346.07,416.24z"/>
	<path class="st0" d="M519.04,225.03l78.97,203.17c3.57,9.07,7.51,16.26,11.8,21.65c36.37-18.85,67.41-29.5,67.41-29.5V132.26
		C677.23,132.26,564.81,151.9,519.04,225.03z"/>
	<path class="st0" d="M485.12,486.77v-21.89c16.89-0.54,28.24-2.06,34.05-4.56c5.81-2.5,8.72-6.86,8.72-13.07
		c0-1.75-0.54-4.43-1.62-8.01c-1.08-3.58-3.04-9.15-5.88-16.72l-15-39.93H386.61l-13.99,34.46c-1.62,3.92-2.87,7.8-3.75,11.66
		c-0.79,3.45-1.17,6.81-1.25,10.1c46.71,21.58,115.41,60.8,132.37,110.81c8-23.59,27.54-44.76,50.83-62.84H485.12z"/>
</g>
<path class="st1" d="M296.91,436.2V132.26c-29.74,15-29.74,15-29.74,15v339.02c0,0,129.95-20.82,211.65,70.62
	C418.02,452.16,296.91,436.2,296.91,436.2z"/>
<g>
	<path class="st1" d="M193.39,730.59l-0.8-0.99l-0.71-1.07l-0.48-0.84l-0.32-0.69l-0.24-0.99l-0.24-1.22l-0.16-1.22v-1.75l0.08-0.69
		l0.08-0.61l0.08-0.69l0.48-1.37l0.16-0.61l0.32-0.69l0.32-0.53l0.32-0.61l0.32-0.69l0.4-0.53l0.4-0.61l0.87-1.07l0.48-0.53
		l1.03-0.99l1.11-0.91l0.63-0.38l1.59-1.07l0.71-0.38l0.64-0.38l1.19-0.61l0.71-0.31l0.95-0.3l0.79-0.31l0.8-0.23l0.87-0.3l0.8-0.23
		l0.71-0.08l0.64-0.15l0.71-0.07l0.72-0.23l0.71-0.15l0.64-0.08l0.71-0.08l0.8-0.08l0.95-0.08h1.67l3.34,0.23l1.75,0.31l0.48,0.08
		l1.59,0.23l0.71,0.15l0.72,0.23l0.64,0.23l0.71,0.23l0.64,0.23l0.64,0.31l0.63,0.23l0.72,0.31l0.87,0.46l0.87,0.53l0.64,0.38
		l0.63,0.53l1.03,0.69l0.56,0.46l0.48,0.53l0.4,0.46l0.95,1.07l0.79,1.22l0.32,0.38l0.4,0.69l0.24,0.61l0.24,0.69l0.48,1.22
		l0.24,0.69l0.08,0.61l0.24,2.06v1.68l-0.08,0.99v0.76l-0.16,1.37l-0.16,0.69l-0.24,0.69l-0.16,0.61l-0.48,1.37l-0.16,0.61
		l-0.32,0.69l-0.32,0.53l-0.32,0.61l-0.32,0.69l-0.4,0.61l-0.4,0.53l-0.4,0.61l-0.56,0.61l-0.32,0.31l-0.56,0.61l-0.48,0.53
		l-0.56,0.46l-0.48,0.46l-0.56,0.46l-1.27,0.76l-1.19,0.69l-0.56,0.3l-0.64,0.31l-0.8,0.31l-0.63,0.15l-1.43,0.46l-0.72,0.15
		l-0.64,0.15l-0.71,0.08l-1.43,0.08l-0.72,0.08h-3.66l-0.8-0.08l-0.95-0.15l-1.04-0.23l-0.79-0.15l-1.43-0.38l-0.87-0.15l-0.71,0.15
		l-0.32,0.53l-0.24,0.69l-0.24,0.76l-0.16,0.46l-0.16,0.84l-0.16,0.69l-0.16,1.37l-0.16,0.69l-0.48,1.37l-0.16,0.69l-0.08,0.69
		l-0.24,0.69l-0.16,0.69l-0.24,0.69l-0.08,0.76l-0.32,1.37l-0.24,0.69l-0.16,0.61l-0.32,0.69l-0.24,0.69l-0.32,0.61l-0.4,0.69
		l-0.63,0.69l-1.03,0.53l-1.27,0.15l-1.35-0.23l-1.03-0.53l-0.56-0.69l-0.08-0.69l0.24-0.61l0.32-0.69l0.4-0.84l0.32-0.91l0.24-0.76
		l0.24-0.91l0.32-0.99l0.48-1.37l0.16-0.76l0.24-0.99l0.16-0.84l0.24-0.69l0.16-0.69l0.08-0.69l0.16-0.69l0.16-0.61l0.16-0.69
		l0.24-0.69l0.24-0.91l0.24-0.99l0.32-1.37l0.16-0.61l0.16-0.84l0.16-0.38l0.16-0.84l0.16-0.61l0.16-0.69l0.24-0.69l0.16-0.69
		l0.24-0.69l0.16-0.99l0.24-0.91l0.48-1.37l0.48-1.22l0.24-0.69l0.16-0.69l0.56-1.6l0.32-1.07l0.24-0.46l0.4-1.07l0.56-1.14
		l0.4-0.91l0.4-0.69l0.71-1.14l0.4-0.61l0.32-0.61l0.4-0.53l0.48-0.53l1.04-0.99l0.56-0.46l1.27-0.61l0.72-0.23l1.43-0.3l0.8,0.08
		l0.72,0.15l0.71,0.38l0.48,0.53l0.16,0.69l-0.24,0.53l-0.63,0.38l-0.56,0.38l-0.63,0.38l-0.48,0.46l-0.95,1.07l-0.4,0.53
		l-1.27,2.44l-0.32,0.53l-0.32,0.61l-0.24,0.69l-0.16,0.69l-0.24,0.69l-0.24,0.91l-0.32,0.99l-0.32,0.69l-0.24,0.99l-0.24,0.91
		l-0.16,0.69l-0.24,0.76l-0.08,0.46l-0.24,0.76l-0.16,0.69l-0.24,0.69l-0.08,0.69l-0.08,0.84l0.16,0.69l0.56,0.38l0.95,0.31
		l1.11,0.15l0.48,0.08l1.11,0.15l1.03,0.15h0.8l1.43-0.08l0.95-0.08l1.03-0.15l0.71-0.23l0.64-0.23l0.71-0.3l0.95-0.38l0.8-0.46
		l1.27-0.76l0.56-0.38l0.48-0.46l1.43-1.6l0.56-0.84l0.64-1.07l0.48-0.84l0.4-0.76l0.32-0.91l0.24-0.91l0.08-0.76l0.16-0.91
		l0.24-0.99l0.08-0.76l0.08-0.69l-0.08-0.69l-0.08-0.76l-0.16-0.69l-0.32-0.99l-0.24-0.91l-0.32-0.69l-0.24-0.69l-0.4-0.61
		l-0.4-0.53l-0.4-0.61l-1.03-0.99l-0.48-0.53l-1.11-0.91l-0.64-0.38l-0.64-0.3l-0.71-0.31l-1.91-0.76l-0.71-0.3l-0.72-0.23
		l-1.35-0.31l-0.8-0.08l-0.72-0.08l-2.23-0.08h-0.72l-0.71,0.08l-1.43,0.08l-0.72,0.08l-0.63,0.15l-0.72,0.15l-0.71,0.23l-1.35,0.3
		l-1.43,0.46l-0.64,0.3l-1.67,0.84l-0.79,0.38l-0.72,0.38l-2.23,1.83l-1.03,0.99l-0.48,0.53l-0.4,0.53l-0.4,0.61l-0.32,0.61
		l-0.24,0.61l-0.24,0.69l-0.24,0.61l-0.24,0.69l-0.16,1.37l0.08,0.69v0.76l0.16,0.99l0.16,0.91l0.24,0.69l0.32,0.69l0.64,1.22
		l0.4,0.61l0.32,0.61l-0.08,0.61l-0.32,0.69l-0.48,0.53l-0.56,0.46l-0.71,0.31l-0.72,0.15l-0.71-0.15l-0.72-0.53l-0.56-0.53
		L193.39,730.59z"/>
	<path class="st1" d="M263.1,726.63l0.8-0.08l0.8,0.08l0.71,0.08l0.79,0.15l0.64,0.23l0.64,0.38l0.32,0.61l-0.24,0.91l-0.56,1.6
		l-0.64,1.22l-0.24,0.69l-0.16,0.61l-0.24,0.69l-0.32,0.61l-0.32,1.37l-0.24,0.69l-0.24,0.61l-0.24,0.76l-0.24,0.69l-0.16,0.53
		l-0.24,0.69l-0.16,0.61l-0.16,0.69l-0.24,0.69l-0.48,2.06l-0.24,0.91l-0.24,0.99l-0.24,0.76l-0.16,0.91l-0.16,0.99l-0.08,0.76v0.69
		l-0.08,0.69v0.69l0.16,1.37l0.24,0.69l0.4,0.53l0.56,0.3l0.71,0.08l0.64-0.08l0.71-0.3l1.11-0.76l0.56-0.53l0.56-0.46l0.56-0.38
		l0.95-1.07l0.8-1.07l0.48-0.61l0.48-0.53l0.32-0.53l0.32-0.69l0.4-0.61l0.4-0.69l0.32-0.38l0.48-0.76l0.4-0.76l0.4-0.84l0.72-1.37
		l0.48-0.61l0.64-0.38l0.95,0.23l0.63,0.76l0.08,0.76l-0.24,0.69l-0.32,0.61l-0.4,0.53l-0.4,0.61l-0.64,1.22l-0.24,0.69l-0.32,0.61
		l-0.8,1.22l-0.4,0.53l-0.8,1.22l-0.4,0.53l-0.95,1.07l-0.4,0.53l-0.48,0.61l-0.95,1.07l-1.03,0.91l-0.48,0.46l-1.11,0.91
		l-1.27,0.76l-1.91,0.91l-1.43,0.31l-0.72,0.08l-0.95-0.08l-0.95-0.23l-0.79-0.31l-0.72-0.61l-0.63-0.69l-0.48-0.69l-0.4-0.91
		l-0.32-1.22l-0.16-1.22l-0.08-0.99l0.08-0.76l0.16-0.76l-0.08-0.3l-0.24,0.38l-0.4,0.61l-0.79,1.07l-0.48,0.61l-1.43,1.6
		l-1.51,1.45l-0.48,0.53l-0.56,0.38l-0.63,0.38l-1.27,0.69l-1.27,0.61l-0.72,0.23l-2.86,0.61l-0.72,0.08l-0.71-0.08l-0.8-0.08
		l-0.72-0.08l-0.56-0.15l-0.71-0.23l-0.64-0.31l-1.11-0.76l-0.56-0.53l-0.8-1.07l-0.32-0.69l-0.24-0.61l-0.08-0.69l-0.08-0.76v-2.06
		l0.08-0.69l0.16-0.69l0.08-0.69l0.16-0.69l0.08-0.69l0.16-0.91l0.24-0.99l0.32-1.37l0.24-0.69l0.24-0.91l0.56-1.6l0.24-0.61
		l0.16-0.69l0.24-0.69l0.08-0.61l1.11-3.2l0.24-0.76l0.87-2.51l0.24-0.61l0.24-0.69l0.4-0.91l0.24-0.91l0.24-0.69l0.32-0.61
		l0.56-0.38l0.71-0.3l0.72-0.15l0.79-0.15l0.72,0.08l0.72,0.15l0.71,0.23l0.64,0.3l0.32,0.46v0.61l-0.16,0.69l-0.24,0.69l-0.16,0.61
		l-0.48,1.37l-0.32,0.76l-0.08,0.46l-0.32,0.91l-0.24,0.38l-0.24,0.84l-0.24,0.69l-0.24,0.99l-0.32,0.99l-0.16,0.46l-0.32,0.84
		l-0.24,0.69l-0.16,0.69l-0.24,0.61l-0.32,1.37l-0.08,0.69l-0.16,0.69l-0.24,0.69l-0.32,1.37l-0.16,0.61l-0.24,0.69l-0.16,0.69
		l-0.24,0.99l-0.16,1.22v1.37l0.16,1.22l0.64,1.07l1.03,0.61l0.95,0.15l1.43-0.31l0.64-0.3l0.56-0.23l0.64-0.31l0.72-0.38l0.64-0.38
		l1.11-0.91l0.48-0.46l1.43-1.6l0.4-0.53l0.48-0.69l0.48-0.76l0.56-0.84l0.63-1.22l0.4-0.69l0.32-0.61l0.32-0.69l0.24-0.61
		l0.24-0.69l0.24-0.61l0.24-0.69l0.24-0.61l0.32-0.69l0.24-0.61l0.32-1.37l0.24-0.69l0.24-0.61l0.24-0.69l0.24-0.61l0.32-0.69
		l0.16-0.69l0.16-0.61l0.48-1.37l0.24-0.61l0.48-1.37l0.16-0.61l0.24-0.69l0.32-0.61l0.4-0.61l0.56-0.38L263.1,726.63z"/>
	<path class="st1" d="M287.66,705.76l1.43,0.15l0.79,0.23l0.72,0.23l0.63,0.31l0.56,0.46l0.16,0.61l-0.16,0.61l-0.32,0.76
		l-0.16,0.46l-0.32,0.76l-0.24,0.61l-0.24,0.69l-0.24,0.61l-0.32,0.61l-0.32,0.69l-0.32,0.61l-0.48,1.37l-0.16,0.61l-0.24,0.69
		l-0.16,0.69l-0.24,0.61l-0.48,1.37l-0.4,0.91l-0.32,0.91l-0.32,0.69l-0.24,0.69l-0.16,0.69l-0.24,0.69l-0.16,0.61l-0.48,1.37
		l-0.24,0.61l-0.16,0.69l-0.24,0.69l-0.08,0.61l-0.24,0.69l-0.08,0.46l0.4-0.08l0.72-0.3l0.63-0.53l0.8-0.46l0.87-0.53l0.71-0.3
		l0.88-0.38l0.95-0.3l0.8-0.23l1.03-0.15l1.27-0.23l1.35-0.07h1.04l0.79,0.07l1.43,0.31l0.63,0.31l0.72,0.3l0.63,0.38l0.56,0.38
		l0.95,1.07l0.4,0.53l0.48,0.53l0.4,0.61l0.24,0.69l0.32,0.61l0.16,0.69l0.24,0.69l0.08,0.61l0.16,0.69l0.08,0.76l0.08,0.69v0.69
		l-0.08,0.69v0.69l-0.08,0.69l-0.08,0.76l-0.32,1.37l-0.08,0.76l-0.32,1.37l-0.48,1.37l-0.16,0.69l-0.63,1.37l-0.24,0.69l-0.32,0.61
		l-0.63,1.37l-0.48,0.61l-0.24,0.53l0.16,0.3l0.56,0.15l0.71-0.08l0.79-0.08l0.72-0.07l0.71-0.23l0.64-0.23l0.72-0.23l0.64-0.38
		l1.11-0.91l0.56-0.38l1.11-1.07l0.4-0.53l0.4-0.61l0.48-0.61l0.79-1.22l0.4-0.53l0.32-0.61l0.4-0.69l0.24-0.61l0.4-0.61l0.63-0.38
		l0.95,0.15l0.64,0.69l0.16,0.84l-0.24,0.69l-0.64,1.22l-0.4,0.61l-0.32,0.61l-0.4,0.61l-0.48,0.61l-0.32,0.38l-0.48,0.69l-0.4,0.61
		l-0.48,0.61l-0.48,0.53l-0.48,0.46l-0.48,0.38l-0.56,0.46l-0.63,0.53l-0.56,0.53l-0.56,0.38l-0.64,0.31l-1.35,0.53l-0.71,0.23
		l-0.64,0.15l-0.71,0.08l-0.79,0.08l-0.72,0.08h-1.27l-0.87-0.08l-1.43-0.15l-0.63,0.15l-0.56,0.38l-0.48,0.46l-1.11,0.91
		l-0.64,0.38l-0.71,0.46l-1.19,0.69l-0.56,0.3l-0.64,0.31l-0.71,0.31l-0.72,0.23l-0.63,0.15l-0.72,0.23l-0.71,0.15l-2.94,0.3h-0.71
		l-1.67-0.15l-0.72-0.07l-0.64-0.15l-2.15-0.69l-0.64-0.38l-0.72-0.38l-0.56-0.53l-0.56-0.46l-0.48-0.61l-0.4-0.53l-0.4-0.69
		l-0.24-0.61l-0.24-0.69l-0.32-1.37l-0.16-0.61l-0.08-0.69l-0.08-0.76l0.08-0.69v-0.69l0.08-0.69l0.08-0.76l0.16-1.37v-0.69
		l0.08-0.69l0.08-0.76l0.16-0.99l0.48-2.59l0.16-0.99l0.24-0.76l0.32-1.37l0.08-0.69l0.16-0.69l0.24-0.69l0.16-0.69l0.24-0.69
		l0.32-1.37l0.32-0.99l0.24-0.91l0.32-1.37l0.24-0.69l0.4-1.37l0.24-0.69l0.16-0.61l0.48-1.37l0.24-0.61l0.48-1.37l0.16-0.61
		l0.32-0.69l0.48-1.3l0.24-0.69l0.24-0.76l0.16-0.46l0.24-0.76l0.16-0.69l0.24-0.61l0.32-0.69l0.24-0.61l0.32-0.69l0.24-0.61
		l0.24-0.69l0.32-0.61l0.24-0.69l0.24-0.61l0.71-2.06l0.64-1.22l0.48-0.53l0.63-0.3L287.66,705.76z M291.08,730.51l-0.79,0.23
		l-0.48,0.15l-0.8,0.23l-0.64,0.31l-0.71,0.31l-0.64,0.3l-0.56,0.38l-1.19,0.76l-0.56,0.38l-0.64,0.53l-0.4,0.3l-0.56,0.61
		l-0.4,0.53l-0.24,0.61l-0.24,0.69l-0.24,0.61l-0.16,0.69l-0.24,0.69l-0.24,0.99l-0.24,0.91l-0.24,0.69l-0.16,0.69l-0.16,0.76
		l-0.24,0.91l-0.16,0.99l-0.08,0.76v0.69l-0.08,0.69v0.69l0.08,0.69v1.45l0.16,0.99l0.24,0.91l0.32,0.69l0.32,0.61l1.11,0.91
		l0.64,0.38l0.64,0.23l1.43,0.15l1.43-0.15l1.43-0.31l0.64-0.23l0.64-0.3l0.63-0.46l0.56-0.38l0.63-0.38l0.56-0.46l0.32-0.46v-0.53
		l-0.32-0.61l-0.4-0.84l-0.16-0.91l0.16-0.76l0.64-0.69l0.8-0.53l0.72-0.15l0.64,0.08l0.56,0.15l0.48-0.15l0.32-0.46l0.32-0.61
		l0.24-0.69l0.16-0.69l0.24-0.61l0.72-2.06l0.16-0.69l0.08-0.69l0.16-0.69l0.24-2.06v-2.13l-0.08-0.69l-0.32-1.37l-0.32-0.61
		l-0.4-0.61l-0.56-0.46l-1.27-0.61l-0.72-0.23l-0.64-0.08l-1.43-0.15L291.08,730.51z"/>
	<path class="st1" d="M336.15,721.6l-0.4,0.69l-0.64,1.22l-0.4,0.84l-0.56,0.84l-0.4,0.53l-0.4,0.61l-0.4,0.53l-0.4,0.69l-0.32,0.46
		l-0.4,0.61l-0.56,0.69l-0.71,0.76l-0.72,0.69l-0.32,0.38l-0.56,0.61l-1.03,0.99l-0.48,0.53l-0.87,0.91l-0.56,0.46l-0.64,0.61
		l-0.87,0.61l-1.19,0.99l-0.64,0.38l-1.75,1.07l-0.56,0.23l-0.64,0.38l-0.87,0.69l-0.56,0.69l-0.32,0.61l-0.16,0.84l-0.24,1.37v0.46
		l-0.16,0.76l-0.16,0.69l-0.08,0.76v1.6l-0.08,0.99v1.52l0.16,0.84l0.08,0.46l0.16,0.76l0.32,0.69l0.32,0.61l0.48,0.53l0.64,0.38
		l0.64,0.23l0.8,0.15h1.35l0.63-0.08l0.72-0.23l0.95-0.38l0.87-0.46l0.64-0.46l0.8-0.61l0.71-0.69l0.95-0.84l0.63-0.53l0.48-0.61
		l0.32-0.38l0.48-0.61l0.32-0.53l0.48-0.69l0.32-0.38l0.48-0.69l0.64-1.14l0.4-0.61l0.48-0.69l0.4-0.69l0.4-0.76l0.71-0.99l0.8-0.61
		l1.03,0.15l0.64,0.76v0.76l-0.24,0.69l-0.32,0.61l-0.4,0.61l-0.32,0.69l-0.32,0.61l-0.24,0.61l-0.4,0.61l-0.32,0.53l-0.4,0.61
		l-0.48,0.69l-0.16,0.38l-0.4,0.69l-0.48,0.61l-0.79,1.07l-0.56,0.69l-0.32,0.31l-0.56,0.69l-0.48,0.53l-0.63,0.76l-0.72,0.61
		l-0.56,0.53l-0.48,0.38l-0.56,0.46l-0.72,0.38l-0.64,0.3l-0.72,0.31l-0.64,0.31l-0.64,0.23l-0.72,0.31l-0.95,0.31l-1.59,0.3
		l-0.95,0.08l-0.88-0.08h-0.48l-0.8-0.08l-0.72-0.15l-0.64-0.23l-0.72-0.23l-0.64-0.31l-0.64-0.38l-0.56-0.46l-0.48-0.46l-0.48-0.53
		l-0.32-0.61l-0.32-0.69l-0.24-0.61l-0.16-0.69l-0.24-0.69l-0.08-0.69l-0.16-0.76v-0.46l-0.16-0.84l-0.08-0.69v-0.69l0.08-0.69
		l0.08-0.76v-0.46l0.08-0.99l0.24-1.68l0.08-0.91v-0.69l0.16-0.69l0.16-0.76l0.56-2.51l0.24-0.91l0.24-1.37l0.16-0.38l0.24-0.91
		l0.16-0.46l0.32-1.14l0.24-0.99l0.16-0.69l0.24-0.91l0.32-1.07l0.08-0.53l0.32-1.07l0.32-0.99l0.24-0.53l0.32-0.99l0.32-0.91
		l0.32-0.69l0.8-1.98l0.16-0.46l0.48-1.07l0.56-1.22l0.4-0.91l0.32-0.69l0.24-0.46l0.4-0.69l0.56-1.29l0.4-0.76l0.4-0.69l0.48-0.69
		l0.63-0.99l1.04-1.37l0.48-0.61l1.03-0.99l0.32-0.38l0.56-0.53l0.56-0.38l1.27-0.84l0.88-0.53l0.87-0.38l0.71-0.23l0.71-0.15h1.43
		l0.79,0.15l0.48,0.07l0.8,0.23l0.64,0.31l1.11,0.91l0.4,0.61l0.56,0.76l0.4,0.91l0.32,0.69l0.32,0.91l0.16,0.99v1.37l-0.16,2.06
		l-0.32,1.37l-0.24,0.61l-0.16,0.76l-0.64,1.83l-0.32,0.61L336.15,721.6z M322.95,723.73l-1.11,3.2l-0.16,0.69l-0.24,0.69
		l-0.32,0.99l-0.56,1.6l-0.24,0.76l-0.08,0.46l-0.24,0.76l-0.24,0.69l-0.16,0.76l0.16,0.46l0.48-0.31l0.79-0.61l3.26-3.12l0.4-0.53
		l0.4-0.61l0.48-0.69l0.32-0.3l0.48-0.69l0.56-0.69l0.56-0.76l0.56-0.84l0.4-0.61l0.32-0.53l0.4-0.53l0.64-1.22l0.32-0.76l0.24-0.46
		l0.32-0.76l0.32-0.69l0.16-0.69l0.24-0.69l0.24-0.84l0.32-0.84l0.24-0.84l0.32-0.84l0.08-0.76l0.08-0.69v-1.45l-0.16-0.61
		l-0.24-0.61l-0.56-0.38l-0.63-0.15l-0.72,0.15l-0.71,0.53l-0.56,0.46l-0.4,0.46l-0.4,0.53l-0.4,0.61l-0.8,1.14l-0.4,0.69
		l-0.32,0.69l-0.32,0.61l-0.32,0.69l-0.32,0.61l-0.32,0.69l-0.24,0.61l-0.32,0.84l-0.48,1.14l-0.32,0.69L322.95,723.73z"/>
	<path class="st1" d="M353.63,741.79v0.84l-0.24,0.69l-0.64,1.22l-0.71,1.14l-0.4,0.69l-0.32,0.61l-0.48,0.69l-0.24,0.46l-0.4,0.69
		l-0.4,0.61l-0.4,0.53l-0.48,0.61l-0.4,0.53l-0.8,1.22l-1.43,1.6l-0.95,0.99l-0.56,0.53l-0.48,0.53l-0.56,0.46l-1.75,1.3l-0.56,0.38
		l-0.71,0.31l-0.72,0.23l-0.64,0.15l-1.43,0.31h-1.35l-0.88-0.08l-0.63-0.23l-0.72-0.23l-0.63-0.38l-0.56-0.46l-0.4-0.53l-0.4-0.61
		l-0.32-0.69l-0.16-0.61l-0.16-0.69l-0.08-0.69v-0.69l0.16-1.37l0.16-0.69l0.24-0.69l0.32-1.37l0.24-0.61l0.16-0.69l0.24-0.69
		l0.24-0.61l0.72-2.06l0.08-0.61l0.16-0.69l0.24-0.69l0.16-0.69l0.16-0.61l0.48-1.37l0.24-0.91l0.24-0.99l0.48-1.37l0.16-0.69
		l0.16-0.53l0.16-0.69l0.32-0.76l0.24-0.61l0.48-2.06l0.24-0.69l0.24-0.91l0.32-0.99l0.24-0.69l0.32-0.61l0.48-0.38l0.71-0.31
		l0.64-0.08l0.8,0.08l1.43,0.15l1.27,0.46l0.4,0.53v0.69l-0.16,0.69l-0.24,0.91l-0.24,0.99l-0.48,1.37l-0.16,0.61l-0.16,0.69
		l-0.24,0.76l-0.24,0.91l-0.8,2.29l-0.16,0.69l-0.32,0.99l-0.56,1.6l-0.16,0.69l-0.16,0.61l-0.16,0.69l-0.56,1.29l-0.16,0.69
		l-0.56,1.9l-0.48,1.37l-0.16,0.69l-0.24,0.99l-0.24,1.22l-0.16,1.29l0.16,1.14l0.64,0.84l0.87,0.23l0.71-0.08l0.72-0.31l0.56-0.38
		l0.63-0.46l2.62-2.51l0.48-0.53l0.4-0.53l0.48-0.61l0.79-1.22l0.48-0.53l0.32-0.46l0.4-0.61l0.48-0.69l0.32-0.69l0.64-1.29
		l0.95-1.83l0.4-0.61l0.71-0.38l1.03,0.15L353.63,741.79z M340.83,718.4l0.4-0.61l0.64-0.53l0.63-0.38l0.8-0.23l0.72-0.15h0.8
		l0.71,0.15l0.64,0.38l0.56,0.46l0.56,0.53l0.4,0.61l0.24,0.69l0.08,0.69v0.76l-0.24,0.69l-0.4,0.61l-0.48,0.61l-0.56,0.46
		l-0.64,0.46l-0.71,0.3l-0.8,0.15l-0.71-0.08l-0.8-0.15l-1.27-0.76l-0.48-0.53l-0.4-0.61l-0.16-0.69l-0.08-0.69l0.08-0.69l0.16-0.76
		L340.83,718.4z"/>
	<path class="st1" d="M388.85,743.69l-0.32,0.69l-0.32,0.61l-0.4,0.61l-0.32,0.61l-0.4,0.69l-0.4,0.61l-0.4,0.53l-1.91,2.13
		l-0.56,0.53l-0.56,0.46l-0.56,0.38l-0.64,0.46l-0.56,0.38l-0.71,0.31l-0.64,0.31l-0.71,0.23l-0.56,0.15l-0.72,0.15l-0.95,0.15
		l-0.8,0.08l-0.56,0.08h-0.8l-0.72-0.08h-0.64l-0.48,0.23l-0.4,0.46l-0.4,0.53l-0.56,0.53l-0.71,0.61l-0.8,0.61l-0.71,0.46
		l-0.87,0.46l-0.8,0.46l-0.71,0.31l-1.03,0.23l-1.27,0.23l-1.35,0.08l-1.03,0.08h-0.8l-0.8-0.08l-0.71-0.23l-0.56-0.23l-0.72-0.31
		l-0.71-0.38l-1.19-0.84l-0.56-0.46l-0.56-0.53l-1.19-1.83l-0.24-0.69l-0.48-2.06l-0.08-0.76v-1.37l0.16-0.76l0.48-0.84l0.95-0.76
		l1.19-0.31l0.95,0.08l0.48,0.46l0.08,0.61v0.69l-0.08,0.69l0.08,0.69l0.32,1.37l0.32,0.61l0.4,0.61l0.4,0.53l0.48,0.53l0.56,0.38
		l0.63,0.3l0.64,0.23l0.71,0.15h0.8l0.64-0.08l0.71-0.23l0.56-0.31l0.64-0.46l0.56-0.46l0.4-0.76v-0.76l-0.4-0.53l-0.48-0.61
		l-0.32-0.61l-0.08-0.76l0.08-0.69l0.4-0.69l0.48-0.46l1.19-0.76l0.32-0.38v-0.53l-0.16-0.69l-0.24-0.69l-0.24-0.61l-0.24-0.69
		l-0.16-0.61l-0.24-0.69l-0.24-0.61l-0.24-0.69l-0.24-0.61l-0.32-0.61l-0.24-0.61l-0.24-0.69l-0.24-0.61l-0.24-0.69l-0.24-0.61
		l-0.24-0.69l-0.24-0.61l-0.24-0.76l-0.32-0.91l-0.24-0.91l-0.24-0.69l-0.16-0.69l-0.08-0.61l-0.08-0.69l-0.16-0.46l-0.48,0.15
		l-1.11,1.07l-0.48,0.53l-0.79,1.07l-0.4,0.61l-0.4,0.53l-0.87,1.53l-0.48,0.84l-0.32,0.69l-0.4,0.53l-0.32,0.61l-0.32,0.53
		l-0.32,0.61l-0.48,0.99l-0.48,0.84l-0.32,0.69l-0.72,1.22l-0.32,0.61l-0.32,0.69l-0.48,0.84l-0.64,0.69l-0.72,0.15l-0.8-0.38
		l-0.4-0.61l0.08-0.69l0.16-0.69l0.64-1.22l0.4-0.69l0.24-0.46l0.4-0.69l0.32-0.69l0.24-0.61l0.95-1.83l0.4-0.61l0.32-0.69
		l0.48-0.84l0.56-0.84l0.4-0.69l0.4-0.61l0.32-0.61l0.4-0.69l0.32-0.38l0.4-0.69l0.4-0.53l1.91-2.13l0.95-0.99l0.48-0.53l0.56-0.53
		l0.56-0.46l1.27-0.76l0.72-0.31l0.79-0.23l0.72-0.15l0.63-0.07l0.72,0.07l0.71,0.15l0.64,0.38l0.48,0.53l0.24,0.61v0.69l-0.16,0.69
		l-0.32,0.61l-0.4,0.61l-0.16,0.61l-0.08,0.69l0.16,0.91l0.24,0.91l0.16,0.76l0.4,0.99l0.4,1.22l0.48,1.22l0.87,2.13l0.32,0.69
		l0.32,0.91l0.48,0.84l0.32,0.69l0.24,0.61l0.24,0.69l0.72,1.83l0.24,0.69l0.16,0.99l0.16,1.22l0.16,0.99l0.08,0.76v1.91l0.08,0.61
		l0.24,0.38l0.64,0.15h0.71l1.43-0.15l1.43-0.46l0.64-0.23l1.27-0.76l0.56-0.46l1.11-0.99l1.03-0.99l0.4-0.53l1.59-2.44l0.32-0.61
		l0.32-0.69l0.24-0.61l0.4-0.61l0.72-0.46l0.95,0.23l0.72,0.76v0.76l-0.24,0.69L388.85,743.69z"/>
	<path class="st1" d="M407.52,734.93v-0.69l-0.08-0.76l-0.16-0.69l-0.24-0.69l-0.4-0.53l-0.56-0.46l-0.71-0.15l-0.72,0.08
		l-0.71,0.15l-0.72,0.23l-0.72,0.38l-0.48,0.23l-1.43,0.91l-0.56,0.46l-0.48,0.38l-0.64,0.53l-0.4,0.38l-0.71,0.61l-0.32,0.38
		l-0.64,0.53l-0.56,0.69l-0.32,0.38l-0.56,0.69l-0.4,0.53l-0.48,0.69l-0.24,0.46l-0.48,0.69l-0.4,0.53l-0.32,0.69l-0.24,0.61
		l-0.24,0.84l-0.16,0.38l-0.48,1.53l-0.24,0.91l-0.24,0.99l-0.16,0.69l-0.16,0.84l-0.08,0.46l-0.24,0.91l-0.16,0.38l-0.24,0.76
		l-0.16,0.69l-0.16,0.84l-0.16,0.46l-0.32,1.98l-0.16,0.84l-0.32,1.37l-0.32,0.53l-0.56,0.38l-1.03,0.31l-1.19,0.23l-1.03,0.15
		l-0.8-0.15l-0.95-0.38l-0.71-0.69l-0.08-1.07l0.48-2.51l0.08-0.76l0.24-0.76l0.16-0.38l0.24-1.37l0.24-0.91l0.16-0.46l0.24-0.91
		l0.08-0.46l0.48-1.52l0.16-0.46l0.24-0.76l0.16-0.69l0.08-0.69l0.24-0.76l0.16-0.46l0.24-0.91l0.08-0.46l0.24-0.76l0.48-2.06
		l0.24-0.91l0.24-0.99l0.24-0.76l0.48-1.14l0.24-0.84l0.16-0.69l0.24-0.61l0.56-1.6l0.24-0.99l0.32-1.52l0.16-0.38l0.24-0.84
		l0.24-0.69l0.24-0.76l0.08-0.38l0.32-0.76l0.24-0.69l0.24-0.76l0.16-0.46l0.24-0.76l0.24-0.69l0.48-1.14l0.32-0.91l0.08-0.38
		l0.32-0.91l0.24-0.38l0.32-0.91l0.08-0.38l0.32-0.91l0.08-0.46l0.32-0.91l0.24-0.38l0.32-0.76l0.24-0.69l0.24-0.61l0.32-0.61
		l0.48-1.37l0.24-0.61l0.32-0.69l0.4-0.91l0.56-0.76l0.64-0.38l0.72-0.07l0.8,0.07l1.43,0.15l0.8,0.15l0.63,0.23l0.56,0.46
		l0.24,0.61l-0.16,0.69l-0.24,0.61l-0.32,0.61l-0.24,0.69l-0.32,0.76l-0.08,0.38l-0.4,0.99l-0.64,1.52l-0.32,0.84l-0.24,0.76
		l-0.24,0.91l-0.56,1.6l-0.32,0.84l-0.16,0.38l-0.32,0.91l-0.08,0.38l-0.32,0.91l-0.24,0.38l-0.24,0.76l-0.24,0.69l-0.24,0.76
		l-0.08,0.46l-0.24,0.76l-0.24,0.69l-0.32,0.84l-0.48,1.52l-0.24,0.84l-0.24,0.76l-0.24,0.91l-0.32,0.91l-0.32,0.76l-0.24,0.61
		l-0.24,0.69l-0.08,0.69l0.16,0.15l0.48-0.53l0.56-0.61l0.64-0.76l0.72-0.76l0.4-0.31l0.56-0.61l0.48-0.61l0.72-0.69l1.03-0.76
		l0.8-0.61l1.27-0.76l0.56-0.38l0.88-0.46l0.95-0.38l0.8-0.23l0.95-0.08h1.83l0.72,0.08l0.79,0.23l1.75,0.84l0.56,0.38l0.56,0.46
		l0.4,0.53l0.32,0.69l0.24,0.61l0.24,0.69l0.16,0.69v0.61l-0.08,0.69v1.37l-0.16,0.99l-0.16,0.91l-0.16,0.76l-0.16,0.61l-0.08,0.69
		l-0.32,1.37l-0.8,2.29l-0.24,0.99l-0.24,0.69l-0.32,1.37l-0.24,0.76l-0.08,0.46l-0.24,1.07l-0.32,1.14l-0.16,0.46l-0.24,0.91
		l-0.32,0.99l-0.24,0.84l-0.08,0.61l-0.08,0.84l-0.08,0.46l0.08,0.76l0.32,0.61l0.64,0.23l0.71,0.07l0.64-0.15l0.71-0.31l0.64-0.46
		l0.71-0.53l0.8-0.76l0.71-0.61l0.95-1.07l0.48-0.61l0.79-1.14l0.48-0.53l0.4-0.69l0.32-0.46l0.48-0.84l1.27-2.13l0.48-0.76
		l0.4-0.76l0.16-0.46l0.4-0.76l0.4-0.61l0.64-0.38l0.95,0.15l0.71,0.76l0.08,0.84l-0.32,0.61l-0.32,0.69l-0.48,0.76l-2.7,4.57
		l-0.71,1.37l-0.48,0.69l-0.32,0.38l-0.87,1.22l-0.48,0.53l-1.03,1.14l-0.32,0.38l-0.56,0.61l-1.11,0.91l-0.48,0.53l-0.63,0.46
		l-0.56,0.38l-1.27,0.61l-1.43,0.46l-0.71,0.15l-0.79,0.08l-1.04,0.08l-1.27-0.15l-1.03-0.15l-0.72-0.3l-0.8-0.69l-0.71-0.91
		l-0.4-0.91l-0.32-0.69l-0.08-0.91v-1.45l0.16-1.14l0.16-0.99l0.16-0.76l0.16-0.61l0.24-0.69l0.24-0.91l0.24-0.99l0.24-0.69
		l0.32-1.37l0.24-0.99l0.16-0.91l0.24-0.76l0.48-1.83l0.16-0.69l0.24-0.76l0.16-0.46l0.24-0.76l0.4-1.29L407.52,734.93z"/>
	<path class="st1" d="M440.67,741.79v0.84l-0.24,0.69l-0.64,1.22l-0.71,1.14l-0.4,0.69l-0.32,0.61l-0.48,0.69l-0.24,0.46l-0.4,0.69
		l-0.4,0.61l-0.4,0.53l-0.48,0.61l-0.4,0.53l-0.8,1.22l-1.43,1.6l-0.95,0.99l-0.56,0.53l-0.48,0.53l-0.56,0.46l-1.75,1.3l-0.56,0.38
		l-0.71,0.31l-0.71,0.23l-0.64,0.15l-1.43,0.31h-1.35l-0.88-0.08l-0.63-0.23l-0.72-0.23l-0.63-0.38l-0.56-0.46l-0.4-0.53l-0.4-0.61
		l-0.32-0.69l-0.16-0.61l-0.16-0.69l-0.08-0.69v-0.69l0.16-1.37l0.16-0.69l0.24-0.69l0.32-1.37l0.24-0.61l0.16-0.69l0.24-0.69
		l0.24-0.61l0.71-2.06l0.08-0.61l0.16-0.69l0.24-0.69l0.16-0.69l0.16-0.61l0.48-1.37l0.24-0.91l0.24-0.99l0.48-1.37l0.16-0.69
		l0.16-0.53l0.16-0.69l0.32-0.76l0.24-0.61l0.48-2.06l0.24-0.69l0.24-0.91l0.32-0.99l0.24-0.69l0.32-0.61l0.48-0.38l0.72-0.31
		l0.64-0.08l0.8,0.08l1.43,0.15l1.27,0.46l0.4,0.53v0.69l-0.16,0.69l-0.24,0.91l-0.24,0.99l-0.48,1.37l-0.16,0.61l-0.16,0.69
		l-0.24,0.76l-0.24,0.91l-0.8,2.29l-0.16,0.69l-0.32,0.99l-0.56,1.6l-0.16,0.69l-0.16,0.61l-0.16,0.69l-0.56,1.29l-0.16,0.69
		l-0.56,1.9l-0.48,1.37l-0.16,0.69l-0.24,0.99l-0.24,1.22l-0.16,1.29l0.16,1.14l0.64,0.84l0.87,0.23l0.71-0.08l0.71-0.31l0.56-0.38
		l0.63-0.46l2.62-2.51l0.48-0.53l0.4-0.53l0.48-0.61l0.79-1.22l0.48-0.53l0.32-0.46l0.4-0.61l0.48-0.69l0.32-0.69l0.64-1.29
		l0.95-1.83l0.4-0.61l0.71-0.38l1.03,0.15L440.67,741.79z M427.87,718.4l0.4-0.61l0.64-0.53l0.63-0.38l0.8-0.23l0.71-0.15h0.8
		l0.71,0.15l0.64,0.38l0.56,0.46l0.56,0.53l0.4,0.61l0.24,0.69l0.08,0.69v0.76l-0.24,0.69l-0.4,0.61l-0.48,0.61l-0.56,0.46
		l-0.64,0.46l-0.71,0.3l-0.8,0.15l-0.71-0.08l-0.8-0.15l-1.27-0.76l-0.48-0.53l-0.4-0.61l-0.16-0.69l-0.08-0.69l0.08-0.69l0.16-0.76
		L427.87,718.4z"/>
	<path class="st1" d="M455.37,731.28l-0.64,0.31l-0.56,0.31l-0.56,0.38l-0.64,0.46l-0.56,0.46l-1.27,0.84l-0.56,0.38l-0.56,0.46
		l-0.56,0.53l-0.95,1.07l-0.56,0.53l-0.95,1.07l-0.8,1.22l-0.48,0.61l-0.95,1.83l-0.88,2.51l-0.24,0.99l-0.32,1.14l-0.32,0.99
		l-0.48,2.06l-0.32,0.99l-0.32,1.14l-0.24,0.99l-0.24,0.69l-0.24,0.99l-0.16,0.84l-0.24,0.76l-0.08,0.69l-0.16,0.61l-0.24,0.61
		l-0.48,0.38l-0.72,0.23l-0.72,0.08l-1.03,0.08l-1.19-0.08l-1.03-0.15l-0.64-0.31l-0.48-0.69l-0.08-0.84l0.16-0.76l0.24-0.99
		l0.24-0.91l0.16-0.69l0.24-0.69l0.16-0.69l0.24-0.61l0.24-0.69l0.16-0.69l0.16-0.61l0.16-0.69l0.24-0.69l0.24-0.61l0.32-1.37
		l0.16-0.61l0.08-0.69l0.24-0.69l0.16-0.69l0.24-0.69l0.24-0.91l0.32-0.99l0.4-1.37l0.16-0.61l0.16-0.69l0.24-0.69l0.16-0.69
		l0.24-0.61l0.16-0.69l0.24-0.69l0.24-0.99l0.24-0.91l0.16-0.69l0.48-1.37l0.16-0.61l0.24-0.69l0.32-1.37l0.56-0.76l1.03-0.53
		l1.27-0.15l1.27,0.15l1.19,0.38l0.8,0.76l0.16,0.91l-0.16,0.76l-0.16,0.53l-0.24,0.69l-0.16,0.69l-0.24,0.61l-0.16,0.69l-0.24,0.69
		l-0.16,0.69l-0.08,0.46l0.08,0.08l0.32-0.38l0.48-0.53l0.4-0.53l0.95-1.07l0.56-0.46l1.03-0.84l0.56-0.46l1.03-0.99l1.59-1.22
		l0.63-0.38l0.64-0.31l0.64-0.38l0.64-0.23l0.72-0.23l1.03-0.23l0.95-0.15h1.83l1.27,0.15l0.87,0.15l0.71,0.31l0.71,0.38l0.56,0.53
		l0.4,0.53l0.4,0.61l0.32,0.61l0.24,0.69l0.24,0.91l0.16,0.91v1.45l-0.08,0.69v0.69l-0.08,0.61l-0.16,0.69l-0.16,0.76l-0.16,0.46
		l-0.24,0.76l-0.24,0.99l-0.32,1.14l-0.32,0.99l-0.24,0.69l-0.24,0.99l-0.32,1.3l-0.32,1.22l-0.32,1.07l-0.16,0.69l-0.16,0.53
		l-0.16,0.69l-0.24,0.69l-0.16,0.61l-0.48,2.06l-0.08,0.69v1.37l0.32,0.61l0.56,0.38l0.71,0.07l0.71-0.23l0.72-0.31l0.63-0.38
		l0.56-0.38l0.63-0.46l1.04-0.99l0.4-0.53l0.48-0.61l0.4-0.53l0.56-0.61l0.4-0.53l0.48-0.69l0.72-1.14l0.48-0.69l0.24-0.38
		l0.48-0.69l0.4-0.69l0.64-1.22l0.32-0.69l0.24-0.61l0.24-0.69l0.4-0.61l0.71-0.46l1.03,0.23l0.64,0.76v0.76l-0.24,0.69l-0.32,0.61
		l-0.32,0.69l-0.32,0.61l-0.4,0.61l-0.32,0.61l-0.48,0.69l-0.24,0.46l-0.79,1.37l-0.16,0.46l-0.4,0.69l-0.79,1.22l-0.48,0.69
		l-0.32,0.38l-0.48,0.61l-0.56,0.69l-0.48,0.53l-0.87,0.91l-0.48,0.53l-1.11,0.91l-0.48,0.46l-0.64,0.46l-0.64,0.38l-1.27,0.61
		l-0.64,0.23l-0.71,0.23l-0.71,0.15l-0.64,0.08l-0.8,0.08h-0.71l-0.71-0.08l-0.64-0.15l-0.71-0.23l-0.64-0.23l-0.64-0.38l-0.48-0.38
		l-0.48-0.53l-0.32-0.69l-0.24-0.61l-0.16-0.69l-0.16-0.61v-1.68l0.16-0.99l0.08-0.76l0.24-0.99l0.72-2.51l0.24-1.29l0.32-1.29
		l0.32-1.22l0.32-0.99l0.24-0.69l0.32-0.99l0.32-1.22l0.24-1.22l0.32-0.99l0.32-1.37l0.08-0.69l0.32-1.45l0.08-0.69l-0.16-0.76
		l-0.48-0.76l-0.71-0.69l-0.71-0.23l-0.72-0.08l-0.71,0.08L455.37,731.28z"/>
	<path class="st1" d="M477.94,780.41l-0.87-0.23l-0.48-0.15l-0.71-0.3l-0.64-0.31l-0.56-0.46l-0.48-0.46l-0.4-0.61l-0.56-0.84
		l-0.32-0.84l-0.16-0.69l-0.08-0.69l0.08-0.76l0.08-0.99l0.24-0.91l0.24-0.69l0.4-0.84l0.48-0.84l0.4-0.61l0.56-0.61l0.48-0.53
		l0.87-0.91l1.67-1.37l0.56-0.38l1.75-1.07l0.71-0.31l0.87-0.46l0.95-0.38l0.79-0.38l0.4-0.15l0.87-0.46l0.87-0.38l0.8-0.38
		l0.72-0.38l0.64-0.23l0.56-0.31l0.48-0.46l0.24-0.61l0.48-1.3l0.64-1.9l0.16-0.69l0.24-0.69l0.16-0.61l0.16-0.69l0.24-0.69
		l0.16-0.61l0.24-0.69l0.48-1.22l0.24-0.69h-0.16l-0.32,0.61l-0.79,1.22l-0.4,0.53l-0.48,0.53l-0.4,0.53l-0.56,0.61l-0.32,0.38
		l-0.56,0.61l-0.48,0.53l-1.03,0.99l-0.56,0.46l-0.63,0.38l-1.27,0.61l-0.64,0.38l-0.63,0.31l-0.64,0.15L482,758.7l-1.43,0.15h-1.51
		l-0.95-0.08l-0.95-0.15l-0.8-0.31l-0.87-0.46l-0.79-0.53l-0.56-0.53l-0.48-0.53l-0.4-0.61l-0.48-0.91l-0.32-0.84l-0.16-0.69
		l-0.08-0.69l-0.16-0.76l-0.16-0.91l-0.08-0.99v-0.76l0.16-1.37l0.16-0.99l0.24-1.22l0.32-0.99l0.24-0.69l0.16-0.61l0.24-0.69
		l0.24-0.61l0.32-0.69l0.32-0.84l0.64-1.37l0.4-0.76l0.4-0.69l0.4-0.53l1.03-1.37l0.56-0.84l0.48-0.53l0.79-1.07l0.95-1.07
		l0.56-0.46l0.64-0.46l1.03-0.84l2.23-1.6l1.75-0.91l0.79-0.3l0.87-0.38l1.67-0.53l0.8-0.15l0.48-0.08l0.79-0.23l0.72-0.15
		l1.43-0.15h0.8l2.07,0.08h0.72l0.71,0.08l0.64,0.08l0.71,0.15l0.8,0.31l0.71,0.23l0.56,0.15l0.63,0.3l0.64,0.23l0.71,0.3l0.87,0.53
		l0.72,0.38l0.71,0.46l0.64,0.46l0.48,0.53l0.24,0.76l-0.24,0.84l-0.48,0.61l-0.48,0.46l-0.56,0.38l-0.64,0.3l-0.71-0.07l-0.72-0.38
		l-1.11-0.69l-1.27-0.76l-0.63-0.31l-0.72-0.23l-0.71-0.15l-0.71-0.23l-1.43-0.31h-2.23l-0.71,0.08l-0.8,0.15l-0.87,0.23l-0.87,0.3
		l-0.87,0.23l-0.95,0.46l-1.11,0.61l-0.87,0.61l-0.56,0.38l-0.56,0.46l-0.48,0.53l-0.63,0.69l-0.64,0.76l-0.56,0.61l-0.56,0.76
		l-0.95,1.29l-0.64,0.91l-0.48,0.84l-0.64,1.37l-0.24,0.61l-0.32,0.69l-0.48,1.37l-0.16,0.69l-0.24,0.69l-0.16,0.76l-0.16,0.69
		l-0.08,0.69l-0.08,0.76l-0.08,0.69v0.76l0.08,0.69l0.24,0.69l0.24,0.76l0.16,0.46l0.4,0.76l0.48,0.46l0.64,0.31l0.71,0.15h0.72
		l0.64-0.15l0.72-0.15l0.64-0.3l1.67-1.14l0.56-0.46l0.48-0.46l0.48-0.53l0.48-0.46l0.48-0.53l0.4-0.53l0.79-1.22l0.56-0.76
		l0.63-0.76l0.4-0.61l0.4-0.53l0.24-0.69l0.64-1.22l0.71-1.22l0.32-0.61l0.32-0.69l1.91-5.48l0.16-0.69l0.32-0.76l0.64-0.61
		l0.8-0.38h0.79l1.03,0.15l0.95,0.31l0.72,0.31l0.56,0.69l0.24,0.84l-0.08,0.69l-0.16,0.69l-0.48,1.37l-0.16,0.61l-0.24,0.69
		l-0.16,0.69l-0.48,1.37l-0.16,0.61l-0.08,0.61l-0.24,0.69l-0.48,2.06l-0.48,1.37l-0.16,0.69l-0.16,0.76l-0.16,0.46l-0.16,0.76
		l-0.16,0.69l-0.24,0.69l-0.32,0.99l-0.24,0.91l-0.24,0.69l-0.16,0.69l-0.71,2.06l-0.08,0.84l0.16,0.46l0.63-0.15l1.19-0.53
		l0.64-0.3l0.64-0.38l0.56-0.38l0.64-0.46l0.48-0.38l0.56-0.53l0.48-0.38l0.56-0.46l0.64-0.61l0.56-0.46l0.48-0.53l0.4-0.53
		l0.4-0.61l0.48-0.53l0.48-0.69l0.72-0.84l0.56-0.61l0.79-1.22l0.4-0.53l0.4-0.61l0.32-0.61l0.24-0.69l0.95-1.83l0.32-0.69
		l0.32-0.61l0.48-0.53l0.48-0.38h0.72l0.72,0.46l0.32,0.53v0.69l-0.32,0.69l-0.4,0.91l-0.4,0.84l-0.4,0.61l-0.32,0.61l-0.4,0.69
		l-0.4,0.84l-0.48,0.84l-0.48,0.76l-0.56,0.76l-0.48,0.76l-0.48,0.61l-0.4,0.53l-0.48,0.69l-0.24,0.38l-1.11,1.37l-0.72,0.76
		l-0.95,0.91l-0.64,0.53l-1.03,0.84l-0.48,0.53l-0.56,0.46l-0.48,0.46l-0.64,0.38l-0.56,0.38l-0.64,0.3l-0.56,0.38l-0.64,0.38
		l-1.27,0.61l-1.19,0.69l-0.64,0.3l-0.64,0.38l-0.4,0.69l-0.4,0.91l-0.16,0.69l-0.24,0.61l-0.16,0.69l-0.24,0.76l-0.16,0.38
		l-0.24,0.76l-0.24,0.69l-0.32,0.99l-0.4,1.14l-0.56,1.14l-0.4,0.99l-0.24,0.69l-0.24,0.61l-0.32,0.69l-0.48,0.69l-0.56,0.84
		l-0.48,0.61l-0.4,0.53l-0.48,0.46l-0.48,0.38l-0.48,0.46l-0.71,0.46l-0.64,0.38l-0.87,0.38l-1.27,0.38l-1.03,0.15l-0.71,0.08h-0.71
		l-0.8-0.08L477.94,780.41z M478.58,773.86l0.08,0.91l0.32,0.61l0.8,0.46l0.87,0.23l0.79-0.08l0.64-0.23l0.64-0.38l0.8-0.61
		l0.63-0.61l0.48-0.61l0.4-0.53l0.4-0.69l0.8-1.68l0.24-0.76l1.11-3.2l0.16-0.99l-0.48-0.31l-0.72,0.31l-0.71,0.38l-1.91,1.14
		l-0.56,0.38l-0.64,0.53l-0.56,0.46l-1.43,1.37l-0.48,0.53l-0.48,0.61l-0.4,0.53l-0.32,0.61l-0.32,0.69L478.58,773.86z"/>
	<path class="st1" d="M547.25,758.85l-1.75-0.3l-0.72-0.23l-0.95-0.38l-0.87-0.38l-0.64-0.38l-0.56-0.46l-0.56-0.38l-1.67-1.37
		l-0.95-0.91l-0.48-0.53l-0.32-0.61l-0.8-1.14l-0.63-1.22l-0.24-0.69l-0.24-0.61l-0.32-0.69l-0.32-0.84l-0.24-0.91l-0.16-0.76
		l-0.16-0.69l-0.08-0.69l-0.16-0.99l-0.16-0.91l-0.08-0.69v-2.13l-0.08-0.69v-0.69l0.08-0.69l0.08-0.99l0.08-0.91l0.16-0.76
		l0.08-0.61l0.08-0.69l0.08-0.76l0.16-0.69l0.16-0.99l0.24-0.91l0.32-1.37l0.24-0.69l0.32-0.99l0.56-1.6l0.24-0.61l0.24-0.69
		l0.32-0.61l0.32-0.69l0.48-0.84l0.4-0.91l0.4-0.69l0.95-1.68l0.24-0.61v-0.61l-0.24-0.53l-0.4-0.61l-0.4-0.69l-0.4-0.84l-0.48-0.84
		l-0.32-0.76l-0.32-0.91l-0.32-0.84l-0.24-0.76l-0.24-0.91l-0.32-0.99l-0.32-1.37l-0.08-0.69l0.32-0.84l0.87-0.53h1.19l0.95,0.53
		l0.48,0.84l0.08,0.69l0.16,0.69l0.24,0.76l0.24,0.69l0.24,0.61l0.24,0.69l0.32,0.69l0.72,1.29l0.32,0.69l0.32,0.46h0.4l0.95-0.91
		l0.48-0.53l1.43-1.37l0.72-0.61l0.56-0.46l0.64-0.38l0.72-0.46l0.4-0.31l0.63-0.46l0.72-0.38l2.62-1.37l1.27-0.61l0.63-0.23
		l1.43-0.31l0.71-0.23l0.72-0.15l2.23-0.31l1.43-0.15h0.71l0.8,0.08h0.71l0.87,0.15h0.48l0.87,0.15l0.64,0.15l0.71,0.3l0.64,0.23
		l0.71,0.31l0.64,0.3l0.63,0.38l0.56,0.38l0.56,0.46l0.64,0.61l0.4,0.53l0.4,0.61l0.32,0.61l0.32,0.69l0.24,0.61l0.16,0.69
		l0.16,0.76l0.16,1.37v1.45l-0.16,0.61l-0.16,0.76l-0.24,0.69l-0.24,0.61l-0.32,0.69l-0.32,0.61l-0.4,0.61l-0.4,0.53l-0.48,0.61
		l-0.79,1.07l-0.56,0.53l-0.48,0.53l-1.11,0.91l-0.56,0.38l-0.64,0.38l-0.56,0.38l-0.64,0.3l-0.87,0.38l-1.03,0.31l-0.8,0.3
		l-0.72,0.23l-0.71,0.15l-0.64,0.08l-1.83,0.15L558.3,728h-1.59l-1.43-0.15l-0.56-0.15l-0.71-0.08l-1.83-0.53l-1.43-0.53l-0.95-0.31
		l-0.64-0.3l-0.64-0.38l-0.63-0.3l-0.64-0.38l-0.64-0.3l-0.64-0.38l-0.56-0.38l-0.56-0.3l-0.4,0.15l-0.32,0.46l-0.88,2.13
		l-0.48,1.22l-0.32,0.91l-0.24,0.76l-0.16,0.61l-0.24,0.69l-0.16,0.99l-0.16,0.91l-0.16,1.37l-0.08,0.76l-0.08,0.99l-0.08,1.22
		l-0.08,0.99v1.68l0.08,0.99v0.76l0.08,0.99l0.24,1.22l0.08,0.99l0.16,0.76l0.24,0.91l0.56,1.6l0.48,0.91l0.48,1.14l0.56,0.84
		l0.4,0.61l0.4,0.53l0.48,0.53l0.8,0.61l0.8,0.53l0.72,0.31l0.63,0.23l0.72,0.23l1.03,0.23l1.27,0.15h1.75l0.72-0.08l1.75-0.31
		l0.95-0.15l0.79-0.23l0.95-0.31l1.19-0.53l1.59-0.76l0.63-0.38l0.56-0.38l1.59-1.22l1.67-1.37l0.64-0.76l0.63-0.69l1.03-1.45
		l0.56-0.76l0.48-0.61l0.4-0.53l0.4-0.61l0.48-0.84l0.56-0.76l0.64-0.3l0.95,0.3l0.63,0.69l0.08,0.84l-0.32,0.69l-0.32,0.61
		l-0.4,0.69l-0.95,1.68l-0.4,0.69l-1.59,2.13l-0.56,0.61l-0.48,0.61l-0.72,0.69l-0.64,0.76l-1.11,0.99l-0.56,0.46l-0.48,0.46
		l-0.72,0.46l-0.32,0.31l-0.72,0.46l-1.11,0.76l-0.64,0.38l-0.71,0.31l-0.64,0.3l-1.35,0.46l-0.71,0.23l-0.64,0.23l-0.71,0.15
		l-0.72,0.23l-0.64,0.15l-0.71,0.07l-2.23,0.31h-1.35l-0.72-0.08h-0.79L547.25,758.85z M559.18,710.33l-0.8,0.15l-0.79,0.23
		l-1.03,0.38l-0.95,0.31l-0.64,0.3l-0.63,0.38l-0.64,0.31l-1.27,0.76l-0.56,0.38l-0.56,0.53l-0.48,0.53l-0.4,0.38l-0.48,0.53
		l-0.64,0.61l-0.48,0.53l-0.56,0.53l-0.4,0.61l-0.4,0.84l0.16,0.91l0.64,0.69l1.27,0.76l0.56,0.38l0.64,0.31l0.56,0.38l0.71,0.23
		l0.64,0.15l1.43,0.38l0.72,0.15l2.07,0.15h1.51l0.72-0.08l0.71-0.15l0.64-0.15l0.71-0.23l0.95-0.38l0.87-0.46l0.63-0.38l1.11-0.91
		l0.48-0.46l0.48-0.61l0.4-0.53l1.27-2.44l0.16-0.69l0.08-0.69v-0.61l-0.08-0.69l-0.32-0.69l-0.56-0.76l-0.63-0.76l-0.56-0.46
		l-0.64-0.3l-0.71-0.23l-0.64-0.15l-0.71-0.15l-0.72-0.08h-0.71L559.18,710.33z"/>
	<path class="st1" d="M592.08,754.66l-1.11,0.91l-1.27,0.76l-0.64,0.31l-1.27,0.76l-0.64,0.31l-1.43,0.46l-0.79,0.23l-1.43,0.23
		l-0.48,0.15l-0.8,0.15l-0.64,0.08h-0.72l-0.87,0.08h-0.72l-1.43-0.15l-0.87-0.23l-0.71-0.23l-0.56-0.23l-0.71-0.23l-0.64-0.3
		l-1.27-0.76l-0.56-0.46l-0.95-1.07l-0.4-0.61l-0.32-0.61l-0.4-0.61l-0.48-1.37l-0.32-1.37l-0.16-1.37l-0.08-0.76l0.08-0.69v-2.13
		l0.16-0.69l0.16-0.61l0.16-0.69l0.24-1.37l0.16-0.76l0.16-0.69l0.24-0.61l0.24-0.69l0.32-0.69l0.32-0.61l0.24-0.69l0.4-0.91
		l0.48-0.91l0.4-0.61l0.48-0.61l0.4-0.53l0.48-0.53l0.8-1.22l0.48-0.53l1.03-0.99l1.11-0.91l0.56-0.38l0.64-0.46l0.72-0.46
		l0.87-0.53l0.87-0.46l0.64-0.31l0.8-0.31l0.48-0.15l0.88-0.31l0.48-0.15l0.8-0.23l0.72-0.15l0.8-0.08l0.72-0.08h1.83l1.27,0.15
		l1.03,0.15l0.72,0.15l0.72,0.23l0.64,0.31l1.43,0.84l0.87,0.46l0.56,0.46l0.4,0.46l0.48,0.53l0.48,0.61l0.95,1.68l0.24,0.69
		l0.08,0.69l0.08,0.61l0.32,1.37v2.67l-0.16,0.91l-0.08,0.84l-0.08,0.76l-0.48,2.29l-0.32,1.07l-0.24,0.76l-0.32,0.76l-0.32,0.84
		l-0.24,0.69l-0.48,0.84l-0.72,1.37l-0.4,0.84l0.08,0.53l0.64,0.07h0.48l0.87-0.07l0.56-0.08l0.72-0.15l0.79-0.31l0.56-0.3
		l1.27-0.76l0.56-0.46l1.03-0.99l0.95-1.07l0.4-0.53l0.4-0.61l0.4-0.53l0.64-1.22l0.72-1.29l0.24-0.46l0.48-0.69l0.72-0.38
		l0.95,0.15l0.64,0.69l0.08,0.84l-0.24,0.69l-0.95,1.83l-0.4,0.53l-0.8,1.22l-0.32,0.61l-0.4,0.53l-0.48,0.61l-0.4,0.53l-0.48,0.46
		l-1.03,1.07l-0.48,0.46l-0.56,0.46l-0.56,0.38l-0.64,0.46l-0.56,0.31l-1.27,0.61l-0.72,0.31l-0.64,0.15l-2.86,0.3l-0.87-0.07
		l-0.72-0.08l-0.64-0.15l-0.64-0.08l-0.56,0.23l-0.56,0.38L592.08,754.66z M576.34,746.36l-0.08,0.91l0.08,0.76l0.08,0.99l0.16,1.22
		l0.32,1.22l0.56,1.14l0.56,0.76l0.64,0.53l0.87,0.38l1.19,0.31h1.03l0.8-0.08l0.79-0.15l0.72-0.31l0.63-0.3l0.72-0.38l0.63-0.38
		l0.56-0.46l0.63-0.46l0.32-0.53v-0.46l-0.32-0.53l-0.4-0.61l-0.16-0.69l0.16-0.91l0.32-0.91l0.56-0.46l0.64-0.38l0.72-0.07
		l0.71,0.15l0.56,0.15l0.48-0.08l0.32-0.46l0.24-0.61l0.95-2.74l0.48-2.06l0.16-0.99l0.24-1.3l0.16-2.59l-0.08-1.22l-0.32-1.29
		l-0.48-1.14l-0.56-0.76l-0.64-0.46l-0.95-0.38l-1.19-0.23l-1.03-0.08h-0.8l-0.64,0.15l-0.72,0.23l-0.8,0.46l-0.64,0.38l-0.71,0.46
		l-0.79,0.61l-0.56,0.46l-0.56,0.53l-0.4,0.53l-0.48,0.53l-0.4,0.61l-0.79,1.07l-0.4,0.61l-1.59,3.05l-0.24,0.69l-0.16,0.61
		l-0.48,1.37l-0.16,0.61l-0.24,0.69l-0.08,0.69v0.69L576.34,746.36z"/>
	<path class="st1" d="M644.54,758.93l-0.72-0.15l-0.71-0.23l-0.64-0.31l-0.64-0.46l-0.95-1.07l-0.4-0.61l-0.24-0.69l-0.08-0.69
		l-0.08-0.76l0.16-1.37l0.08-0.76l0.16-1.37l0.32-1.37l0.16-0.53l0.16-0.69l0.24-0.84l0.16-0.61l0.24-0.69l0.16-0.69l0.24-0.69
		l0.16-0.69l0.24-0.91l0.32-0.99l0.16-0.69l0.24-0.69l0.16-0.69l0.24-0.69l0.16-0.61l0.32-1.37l0.08-0.69l0.48-2.06l0.08-0.69
		l0.08-0.76l-0.08-0.69l-0.32-0.61l-0.48-0.46l-0.64-0.15l-0.8-0.08l-0.72,0.15l-0.64,0.23l-1.91,1.14l-0.63,0.46l-1.11,0.91
		l-0.48,0.53l-0.56,0.46l-0.48,0.53l-0.48,0.61l-0.4,0.61l-0.4,0.53l-0.4,0.61l-0.48,0.53l-0.4,0.61l-0.32,0.61l-0.32,0.69
		l-0.72,1.22l-0.24,0.61l-0.48,1.37l-0.16,0.69l-0.32,0.91l-0.24,0.91l-0.24,0.76l-0.24,0.91l-0.32,0.91l-0.24,0.76l-0.48,1.83
		l-0.08,0.76l-0.24,0.99l-0.32,1.22l-0.32,0.99l-0.24,0.69l-0.16,0.61l-0.24,0.69l-0.32,0.61l-0.48,0.46l-0.72,0.31l-0.72,0.15
		l-0.79,0.08l-0.8-0.08H623l-0.71-0.15l-0.64-0.31l-0.4-0.46l0.08-0.69l0.08-0.76l0.16-0.91l0.24-0.91l0.32-0.76l0.24-0.99l0.4-1.22
		l0.32-1.22l0.24-0.99l0.16-0.76l0.48-1.83l0.48-2.06l0.24-0.61l0.24-0.69l0.24-0.91l0.16-0.91l0.24-0.76l0.16-0.61l0.48-1.6
		l0.24-0.91l0.24-0.76l0.16-0.99l0.24-1.22v-1.29l-0.08-0.99l-0.48-0.61l-0.8-0.38l-0.95-0.15l-0.72,0.15l-0.95,0.38l-0.8,0.46
		l-0.56,0.53l-1.11,0.91l-0.72,0.61l-0.72,0.69l-0.48,0.53l-0.4,0.53l-0.32,0.61l-0.48,0.69l-0.32,0.38l-0.56,0.84l-0.56,0.76
		l-0.48,0.69l-0.56,0.84l-1.03,1.98l-0.32,0.69l-0.24,0.69l-0.16,0.69l-0.48,1.37l-0.16,0.69l-0.16,0.76l-0.48,2.06l-0.24,0.69
		l-0.32,1.37l-0.24,0.69l-0.16,0.76l-0.24,0.76l-0.16,0.69l-0.16,0.53l-0.16,0.69l-0.24,0.69l-0.24,0.76l-0.56,0.69l-1.11,0.53
		l-1.35,0.08l-1.27-0.08l-1.27-0.46l-0.8-0.76l-0.16-0.91l0.16-0.69l0.32-0.76l0.16-0.46l0.24-0.76l0.16-0.69l0.24-0.99l0.24-0.91
		l0.16-0.69l0.48-1.37l0.16-0.61l0.24-0.69l0.16-0.69l0.24-0.61l0.16-0.69l0.24-0.69l0.24-0.99l0.24-0.91l0.16-0.69l0.48-1.37
		l0.24-0.99l0.24-0.91l0.24-0.69l0.16-0.69l0.08-0.69l0.24-0.69l0.16-0.69l0.32-0.91l0.32-0.99l0.32-1.37l0.16-0.61l0.8-3.43
		l0.24-0.61l0.32-0.69l0.56-0.38l0.8-0.23l0.8-0.15l1.59,0.15l0.8,0.15l0.72,0.31l0.64,0.46l0.32,0.53l-0.08,0.69l-0.24,0.76
		l-0.24,0.69l-0.16,0.69l-0.24,0.69l-0.16,0.76l-0.24,0.69l-0.32,1.37l-0.08,0.46l0.32-0.15l0.4-0.69l0.48-0.61l0.4-0.61l0.48-0.53
		l0.4-0.61l0.48-0.53l0.56-0.69l0.48-0.46l0.4-0.46l1.11-0.91l1.27-0.84l0.56-0.38l0.63-0.38l0.72-0.31l0.64-0.23l0.8-0.23l0.8-0.08
		h1.35l0.72,0.08l0.72,0.15l0.64,0.23l0.63,0.31l0.56,0.38l0.48,0.46l0.48,0.53l0.64,1.22l0.24,0.61l0.24,0.69l0.08,0.69v0.69
		l-0.08,0.91l-0.08,0.99l-0.08,0.53h0.08l0.32-0.38l0.48-0.61l0.48-0.53l0.87-1.07l0.56-0.61l0.32-0.38l1.03-1.14l0.48-0.53
		l0.56-0.38l1.19-0.91l0.63-0.46l0.56-0.38l0.63-0.3l0.72-0.31l0.72-0.15l0.95-0.15l1.35-0.08l0.56-0.08h0.72l0.71,0.15l0.95,0.23
		l0.95,0.38l0.72,0.46l0.48,0.46l0.4,0.61l0.32,0.61l0.16,0.61l0.24,0.69l0.08,0.69l0.08,0.61v1.37l-0.08,0.69l-0.08,0.76
		l-0.32,1.37l-0.24,0.99l-1.19,3.66l-0.32,0.99l-0.24,0.69l-0.16,0.99l-0.24,0.84l-0.24,0.76l-0.32,0.91l-0.24,0.91l-0.24,0.76
		l-0.4,1.83l-0.16,0.76l-0.16,0.99l-0.16,1.3l0.08,1.22l0.24,0.91l0.48,0.46l0.8-0.08l0.64-0.15l0.56-0.31l0.64-0.3l0.64-0.46
		l0.56-0.38l1.11-1.07l0.4-0.53l0.95-1.22l0.4-0.38l0.48-0.61l2.78-4.26l0.32-0.69l0.72-1.37l0.24-0.38l0.48-0.69l0.32-0.61
		l0.71-0.38l0.95,0.15l0.64,0.76v0.76l-0.32,0.69l-0.4,0.69l-0.24,0.61l-0.32,0.53l-0.72,1.37l-0.56,0.91l-0.48,0.76l-0.4,0.61
		l-0.4,0.53l-1.19,1.83l-0.4,0.53l-0.8,1.14l-0.48,0.61l-0.87,1.07l-1.03,0.99l-0.48,0.53l-0.48,0.46l-1.11,0.91l-0.64,0.38
		l-1.91,0.91l-0.71,0.23l-0.64,0.15l-0.8,0.08h-1.59L644.54,758.93z"/>
	<path class="st1" d="M698.99,741.64v0.91l-0.24,0.69l-0.24,0.53l-0.32,0.61l-0.48,0.69l-0.24,0.38l-0.48,0.61l-0.4,0.69l-0.32,0.61
		l-0.79,1.07l-0.56,0.53l-0.48,0.53l-1.27,1.22l-0.64,0.46l-0.72,0.46l-0.71,0.53l-0.56,0.3l-0.64,0.38l-0.72,0.23l-0.87,0.31
		l-1.04,0.23l-0.79,0.23l-0.72,0.07H685l-0.72-0.07l-0.72-0.15l-0.72-0.23h-0.64l-0.63,0.15l-0.56,0.38l-0.48,0.53l-0.56,0.53
		l-0.56,0.46l-0.56,0.38l-0.64,0.46l-0.72,0.46l-0.4,0.23l-0.72,0.38l-0.63,0.31l-0.72,0.3l-0.79,0.23l-0.48,0.15l-0.8,0.23
		l-1.43,0.3h-2.78l-0.87-0.08l-0.72-0.08l-0.71-0.15l-0.64-0.23l-0.71-0.31l-0.64-0.3l-0.71-0.31l-0.56-0.38l-0.56-0.46l-0.48-0.53
		l-0.48-0.23l-0.4,0.08l-0.24,0.46l-0.24,0.61l-0.32,1.37l-0.08,0.61l-0.16,0.69l-0.24,0.76l-0.48,1.83l-0.08,0.69l-0.16,0.69
		l-0.08,0.69l-0.24,0.69l-0.64,2.74l-0.08,0.69l-0.16,0.99l-0.16,0.91l-0.24,0.76l-0.16,0.99l-0.16,0.91l-0.16,0.76l-0.08,0.69
		l-0.24,0.61l-0.08,0.69l-0.16,0.76l-0.16,0.99l-0.16,0.91l-0.16,0.69l-0.24,0.61l-0.56,0.38l-0.56,0.23l-0.72,0.08l-0.87,0.08
		h-0.87l-0.48-0.08l-0.87-0.15l-0.72-0.31l-0.4-0.53l-0.08-0.61l0.08-0.69l0.16-0.69l0.08-0.61l0.63-2.74l0.08-0.69l0.16-0.69
		l0.24-0.91l0.16-0.99l0.16-0.76l0.16-0.99l0.16-0.91l0.8-3.43l0.08-0.69l0.08-0.61l0.16-0.69l0.24-0.76l0.48-1.83l0.16-0.76
		l0.16-0.91l0.24-0.99l0.24-0.69l0.16-0.69l0.16-0.61l0.48-2.06l0.24-0.61l0.24-0.69l0.32-1.3l0.24-0.69l0.16-0.99l0.24-0.91
		l0.16-0.69l0.48-1.37l0.48-1.83l0.24-0.76l0.32-1.37l0.24-0.99l0.24-0.91l0.16-0.69l0.24-0.69l0.24-0.61l0.24-0.69l0.16-0.61
		l0.24-0.69l0.16-0.69l0.24-0.61l0.24-0.69l0.16-0.69l0.08-0.61l0.32-1.22l0.24-0.76l0.24-0.69l0.24-0.61l0.16-0.69l0.64-1.83
		l0.56-0.46l0.95-0.31l1.27-0.08l1.27,0.08l1.19,0.46l0.71,0.84v1.14l-0.24,0.99l-0.16,0.46l0.16,0.08l0.4-0.3l0.71-0.61l0.8-0.53
		l0.63-0.53l0.8-0.46l0.87-0.53l0.71-0.31l0.95-0.38l1.11-0.38l1.03-0.3l0.79-0.08l0.95-0.08h1.03l0.8,0.08l0.72,0.15l0.64,0.23
		l0.63,0.15l0.64,0.23l0.8,0.3l0.64,0.31l0.56,0.38l0.48,0.53l0.95,0.91l0.48,0.69l0.32,0.61l0.24,0.61l0.24,0.69l0.16,0.69
		l0.16,0.61l0.32,1.37v2.06l0.08,0.69l-0.08,0.69v0.69l-0.08,0.69l-0.08,0.76l-0.08,0.69l-0.16,0.61l-0.16,0.69l-0.4,1.29
		l-0.24,0.69l-0.16,0.69l-0.16,0.61l-0.24,0.69l-0.32,0.69l-0.87,1.83l-0.87,1.68l0.16,0.31l0.56,0.15l0.72-0.08l0.79-0.07h0.56
		l0.72-0.15l0.79-0.31l0.64-0.3l1.35-0.69l1.11-0.91l0.48-0.53l0.56-0.46l0.4-0.53l0.48-0.61l0.4-0.61l0.72-1.14l0.48-0.69
		l0.32-0.61l0.32-0.69l0.64-1.22l0.71-0.38l1.03,0.15L698.99,741.64z M679.91,744.76l0.24-0.61l0.48-1.37l0.16-0.61l0.16-0.69
		l0.24-0.69l0.16-0.61l0.16-0.69l0.32-2.74l-0.08-0.76v-0.69l-0.08-0.69l-0.16-0.61l-0.16-0.69l-0.4-0.69l-0.64-0.69l-0.71-0.61
		l-0.72-0.3l-0.71-0.15l-0.64-0.08h-0.8l-0.72,0.08l-0.56,0.15l-0.8,0.15l-1.59,0.61l-0.48,0.15l-1.43,0.69l-0.71,0.38l-0.56,0.46
		l-0.64,0.38l-0.56,0.46l-1.11,1.07l-0.48,0.61l-0.4,0.84l-0.4,1.14l-0.32,0.99l-0.56,1.6l-0.24,0.91l-0.16,0.76l-0.24,0.99
		l-0.32,1.14l-0.24,0.99l-0.24,0.69l-0.16,0.99l-0.32,1.22l-0.4,1.22l-0.24,0.99l-0.08,0.69l0.16,0.61l0.4,0.46l0.56,0.53l0.56,0.46
		l0.56,0.38l0.71,0.3l1.04,0.31l0.95,0.23l1.43,0.15l0.79-0.08l0.72-0.08l0.71-0.15l0.63-0.15l0.72-0.15l0.63-0.3l1.19-0.76
		l0.63-0.38l0.56-0.46l0.32-0.53l-0.16-0.76l-0.4-0.76l-0.24-0.69l-0.08-0.61l0.16-0.69l0.32-0.53l0.56-0.53l0.95-0.31l1.11-0.23
		l0.79-0.31l0.48-0.69L679.91,744.76z"/>
	<path class="st1" d="M734.91,743.85l-0.16,0.38l-0.4,0.76l-0.4,0.53l-0.32,0.61l-0.32,0.69l-0.32,0.61l-0.8,1.22l-0.4,0.53
		l-0.4,0.61l-0.32,0.61l-0.4,0.61l-0.48,0.53l-0.48,0.61l-0.48,0.53l-0.87,1.07l-0.48,0.53l-0.48,0.46l-2.23,1.83l-0.64,0.38
		l-0.71,0.38l-0.87,0.38l-0.95,0.38l-0.71,0.23l-0.72,0.15h-0.8l-0.95-0.08l-0.95-0.23l-0.71-0.23l-0.56-0.38l-0.56-0.46l-0.56-0.76
		l-0.56-0.84l-0.24-0.69l-0.24-0.91l-0.08-0.99v-0.76l0.08-0.99l0.08-0.91l-0.24-0.15l-0.4,0.53l-0.79,1.22l-0.8,1.07l-0.48,0.53
		l-0.4,0.53l-0.48,0.53l-0.4,0.53l-0.56,0.46l-0.48,0.46l-0.56,0.46l-0.56,0.38l-0.64,0.38l-0.87,0.53l-1.19,0.53l-1.27,0.38
		l-1.04,0.23l-1.43,0.15l-0.8-0.08l-0.95-0.15l-0.95-0.23l-0.72-0.23l-0.64-0.23l-0.56-0.38l-1.11-0.91l-0.4-0.53l-0.4-0.61
		l-0.48-0.84l-0.48-1.14l-0.24-0.99l-0.08-0.76l-0.16-0.99l-0.08-1.22v-0.99l0.08-0.76l0.08-0.99l0.16-0.91l0.24-0.76l0.24-0.91
		l0.24-0.99l0.24-0.69l0.32-0.61l0.24-0.69l1.91-3.66l0.4-0.61l0.4-0.53l0.4-0.61l0.79-1.07l0.48-0.53l1.03-1.14l0.32-0.31
		l0.56-0.61l1.11-0.91l0.71-0.69l0.87-0.61l1.11-0.84l0.64-0.38l0.56-0.38l0.71-0.31l0.95-0.38l0.87-0.46l0.8-0.38l0.95-0.31
		l0.95-0.23l0.8-0.23l1.99-0.15l0.72-0.08h0.95l1.59,0.08l1.83,0.15l1.75,0.31l0.72,0.15l0.87,0.23l3.18,1.37l0.56,0.46l0.56,0.38
		l0.56,0.46l0.48,0.53l0.16,0.84l-0.32,1.07l-0.88,0.91l-0.87,0.53l-0.64,0.07l-0.63-0.23l-0.64-0.46l-0.72-0.38l-0.64-0.38
		l-0.56-0.23l-0.64-0.31l-0.72-0.31l-0.64-0.15l-1.35-0.3l-0.8-0.23l-0.79-0.15h-1.59l-0.56,0.08l-0.8,0.08l-1.03,0.23l-1.99,0.69
		l-0.8,0.38l-0.8,0.46l-0.56,0.38l-0.64,0.38l-0.56,0.38l-0.56,0.46l-0.64,0.53l-0.32,0.31l-0.56,0.61l-0.48,0.53l-0.4,0.53
		l-0.95,1.07l-0.4,0.53l-0.4,0.61l-0.95,1.83l-0.4,0.61l-0.48,1.37l-0.32,0.69l-0.32,0.61l-0.48,2.06l-0.24,0.76l-0.24,2.06v2.13
		l0.08,0.76l0.24,0.69l0.32,0.61l0.4,0.61l0.48,0.46l0.72,0.31l0.95,0.15l1.03-0.08l0.72-0.23l1.27-0.61l1.11-0.91l0.48-0.46
		l0.56-0.46l0.48-0.53l0.4-0.53l0.48-0.53l0.4-0.53l0.87-1.14l0.4-0.53l1.19-1.83l0.48-0.84l0.56-0.99l0.32-0.46l0.95-1.98
		l0.32-0.69l0.16-0.53l0.32-0.69l0.24-0.61l0.24-0.69l0.32-0.84l0.48-1.52l0.32-0.84l0.24-0.76l0.48-0.69l0.8-0.38l0.72-0.15
		l0.72,0.08l0.71,0.15l1.27,0.61l0.64,0.38l0.32,0.46l0.08,0.69l-0.24,0.61l-0.16,0.69l-0.24,0.69l-0.32,1.37l-0.24,0.69l-0.16,0.61
		l-0.48,1.37l-0.16,0.76l-0.08,0.46l-0.24,0.91l-0.16,0.69l-0.32,1.29l-0.24,0.91l-0.16,0.76l-0.16,0.84l-0.24,1.14l-0.24,1.29
		l-0.08,1.14l0.08,0.99l0.4,0.61l0.79,0.38l1.19,0.08l0.95-0.3l0.71-0.38l1.11-0.76l0.56-0.53l0.95-0.99l0.95-1.07l0.8-1.07
		l0.4-0.61l0.48-0.61l0.16-0.46l1.27-1.83l0.32-0.61l0.4-0.61l1.59-3.05l0.72-0.38l0.95,0.15l0.64,0.76l0.08,0.76l-0.32,0.69
		L734.91,743.85z"/>
	<path class="st1" d="M750.73,731.28l-0.64,0.31l-0.56,0.31l-0.56,0.38l-0.64,0.46l-0.56,0.46l-1.27,0.84l-0.56,0.38l-0.56,0.46
		l-0.56,0.53l-0.95,1.07l-0.56,0.53l-0.95,1.07l-0.8,1.22l-0.48,0.61l-0.95,1.83l-0.88,2.51l-0.24,0.99l-0.32,1.14l-0.32,0.99
		l-0.48,2.06l-0.32,0.99l-0.32,1.14l-0.24,0.99l-0.24,0.69l-0.24,0.99l-0.16,0.84l-0.24,0.76l-0.08,0.69l-0.16,0.61l-0.24,0.61
		l-0.48,0.38l-0.72,0.23l-0.72,0.08l-1.03,0.08l-1.19-0.08l-1.03-0.15l-0.64-0.31l-0.48-0.69l-0.08-0.84l0.16-0.76l0.24-0.99
		l0.24-0.91l0.16-0.69l0.24-0.69l0.16-0.69l0.24-0.61l0.24-0.69l0.16-0.69l0.16-0.61l0.16-0.69l0.24-0.69l0.24-0.61l0.32-1.37
		l0.16-0.61l0.08-0.69l0.24-0.69l0.16-0.69l0.24-0.69l0.24-0.91l0.32-0.99l0.4-1.37l0.16-0.61l0.16-0.69l0.24-0.69l0.16-0.69
		l0.24-0.61l0.16-0.69l0.24-0.69l0.24-0.99l0.24-0.91l0.16-0.69l0.48-1.37l0.16-0.61l0.24-0.69l0.32-1.37l0.56-0.76l1.03-0.53
		l1.27-0.15l1.27,0.15l1.19,0.38l0.8,0.76l0.16,0.91l-0.16,0.76l-0.16,0.53l-0.24,0.69l-0.16,0.69l-0.24,0.61l-0.16,0.69l-0.24,0.69
		l-0.16,0.69l-0.08,0.46l0.08,0.08l0.32-0.38l0.48-0.53l0.4-0.53l0.95-1.07l0.56-0.46l1.03-0.84l0.56-0.46l1.03-0.99l1.59-1.22
		l0.63-0.38l0.64-0.31l0.64-0.38l0.64-0.23l0.72-0.23l1.03-0.23l0.95-0.15h1.83l1.27,0.15l0.87,0.15l0.71,0.31l0.72,0.38l0.56,0.53
		l0.4,0.53l0.4,0.61l0.32,0.61l0.24,0.69l0.24,0.91l0.16,0.91v1.45l-0.08,0.69v0.69l-0.08,0.61l-0.16,0.69l-0.16,0.76l-0.16,0.46
		l-0.24,0.76l-0.24,0.99l-0.32,1.14l-0.32,0.99l-0.24,0.69l-0.24,0.99l-0.32,1.3l-0.32,1.22l-0.32,1.07l-0.16,0.69l-0.16,0.53
		l-0.16,0.69l-0.24,0.69l-0.16,0.61l-0.48,2.06l-0.08,0.69v1.37l0.32,0.61l0.56,0.38l0.71,0.07l0.72-0.23l0.72-0.31l0.63-0.38
		l0.56-0.38l0.63-0.46l1.04-0.99l0.4-0.53l0.48-0.61l0.4-0.53l0.56-0.61l0.4-0.53l0.48-0.69l0.72-1.14l0.48-0.69l0.24-0.38
		l0.48-0.69l0.4-0.69l0.64-1.22l0.32-0.69l0.24-0.61l0.24-0.69l0.4-0.61l0.71-0.46l1.03,0.23l0.64,0.76v0.76l-0.24,0.69l-0.32,0.61
		l-0.32,0.69l-0.32,0.61l-0.4,0.61l-0.32,0.61l-0.48,0.69l-0.24,0.46l-0.79,1.37l-0.16,0.46l-0.4,0.69l-0.79,1.22l-0.48,0.69
		l-0.32,0.38l-0.48,0.61l-0.56,0.69l-0.48,0.53l-0.87,0.91l-0.48,0.53l-1.11,0.91l-0.48,0.46l-0.64,0.46l-0.64,0.38l-1.27,0.61
		l-0.64,0.23l-0.71,0.23l-0.72,0.15l-0.64,0.08l-0.8,0.08h-0.71l-0.72-0.08l-0.64-0.15l-0.72-0.23l-0.64-0.23l-0.64-0.38l-0.48-0.38
		l-0.48-0.53l-0.32-0.69l-0.24-0.61l-0.16-0.69l-0.16-0.61v-1.68l0.16-0.99l0.08-0.76l0.24-0.99l0.72-2.51l0.24-1.29l0.32-1.29
		l0.32-1.22l0.32-0.99l0.24-0.69l0.32-0.99l0.32-1.22l0.24-1.22l0.32-0.99l0.32-1.37l0.08-0.69l0.32-1.45l0.08-0.69l-0.16-0.76
		l-0.48-0.76l-0.72-0.69l-0.71-0.23l-0.72-0.08l-0.71,0.08L750.73,731.28z"/>
	<path class="st1" d="M809.47,741.64l0.08,0.84l-0.32,0.61l-0.32,0.76l-0.71,1.37l-0.48,0.84l-0.48,0.69l-0.48,0.84l-0.4,0.84
		l-0.32,0.69l-0.8,1.22l-0.32,0.38l-0.4,0.69l-0.4,0.61l-0.48,0.61l-0.56,0.69l-0.64,0.76l-0.48,0.61l-0.56,0.46l-1.03,0.99
		l-0.4,0.46l-0.56,0.53l-1.03,0.84l-0.56,0.46l-0.64,0.53l-1.35,0.84l-0.48,0.31l-1.75,1.07l-1.43,0.69l-0.88,0.38l-0.56,0.46
		l-0.48,0.46l-0.48,1.37l-0.16,0.69l-0.72,2.06l-0.24,0.76l-0.24,0.69l-0.16,0.76l-0.32,0.91l-0.4,0.91l-0.32,0.69l-0.24,0.61
		l-0.4,0.69l-0.16,0.46l-0.4,0.69l-0.63,1.22l-0.4,0.53l-0.95,1.07l-0.48,0.46l-0.56,0.46l-0.64,0.46l-0.8,0.53l-0.87,0.46
		l-0.72,0.38l-0.95,0.31l-1.11,0.23l-0.95,0.15h-2.15l-1.27-0.23l-0.95-0.31l-0.79-0.3l-0.8-0.61l-0.87-0.84l-0.64-0.76l-0.4-0.76
		l-0.24-0.91l-0.16-0.91v-0.69l0.08-0.69l0.16-0.69l0.16-0.61l0.16-0.69l0.24-0.61l0.32-0.69l0.48-0.84l0.56-0.84l0.56-0.61
		l1.43-1.37l0.63-0.38l0.72-0.46l2.14-1.45l0.64-0.38l0.8-0.38l0.4-0.23l2.07-0.91l0.48-0.15l1.03-0.46l0.95-0.38l0.72-0.38
		l0.87-0.38l0.72-0.61l0.4-0.61l0.24-0.69l0.16-0.61l0.16-0.69l0.24-0.69l0.24-0.61l0.24-0.69l0.4-1.29l0.24-0.69l0.16-0.69
		l0.64-1.83l0.16-0.76l0.16-0.69h-0.08l-0.4,0.53l-0.48,0.53l-0.4,0.53l-0.48,0.53l-0.8,1.07l-0.48,0.53l-0.56,0.61l-0.95,0.91
		l-0.79,0.61l-0.72,0.69l-0.63,0.46l-0.56,0.38l-0.71,0.3l-0.8,0.46l-0.95,0.46l-0.72,0.23l-1.43,0.3l-0.95,0.08l-1.04,0.15
		l-0.72-0.08l-0.87-0.15l-0.72-0.15l-0.8-0.31l-0.87-0.38l-0.64-0.46l-0.56-0.46l-0.4-0.61l-0.4-0.84l-0.32-0.91l-0.08-0.76v-0.91
		l-0.08-0.99v-0.76l0.08-0.91l0.16-0.99l0.08-0.76l0.16-0.76l0.16-0.53l0.16-0.76l0.08-0.69l0.24-0.69l0.16-0.69l0.24-0.69
		l0.64-2.74l0.24-0.61l0.48-1.37l0.32-0.76l0.24-0.69l0.16-0.53l0.48-1.37l0.24-0.61l0.24-0.76l0.08-0.69l0.24-0.61l0.48-1.37
		l0.16-0.69l0.24-0.69l0.48-2.06l0.24-0.61l0.4-0.46l0.72-0.3l0.71-0.08l0.8-0.08h0.72l0.8,0.08l0.64,0.15l0.63,0.38l0.32,0.53v0.61
		l-0.08,0.69l-0.16,0.69l-0.24,0.69l-0.48,2.06l-0.16,0.61l-0.16,0.69l-0.24,0.69l-0.48,2.06l-0.16,0.61l-0.16,0.69l-0.32,0.69
		l-0.24,0.99l-0.24,0.91l-0.32,1.37l-0.48,1.37l-0.08,0.69l-0.16,0.69l-0.16,0.61l-0.24,0.69l-0.16,0.69l-0.16,0.76l-0.08,0.46
		l-0.24,0.84l-0.16,0.69l-0.16,0.76l-0.08,0.69v1.45l0.08,0.69l0.32,0.69l0.48,0.46l0.71,0.23l0.72,0.15l0.71,0.08l0.72-0.15
		l0.72-0.23l0.63-0.38l0.56-0.46l0.63-0.46l0.64-0.53l0.32-0.3l0.8-0.61l0.95-0.91l0.48-0.53l0.4-0.53l0.56-0.69l0.24-0.38
		l0.48-0.69l0.48-0.61l0.4-0.53l0.4-0.69l0.32-0.61l0.24-0.69l0.4-0.69l0.32-0.38l0.64-1.37l0.24-0.61l0.24-0.69l0.48-0.99
		l0.48-1.07l0.32-0.99l0.16-0.69l0.24-0.69l0.16-0.69l0.24-0.61l0.32-0.69l0.32-0.84l0.24-0.91l0.24-0.76l0.32-1.37l0.24-0.84
		l0.24-0.91l0.24-0.76l0.32-0.61l0.48-0.46l0.72-0.23l0.72-0.08h1.51l0.8,0.15l0.72,0.23l0.64,0.38l0.24,0.53v0.69l-0.08,0.69
		l-0.24,0.69l-0.48,1.22l-0.24,0.69l-0.16,0.99l-0.24,0.91l-0.24,0.76l-0.24,0.91l-0.32,0.84l-0.24,0.76l-0.24,0.91l-0.32,0.99
		l-0.32,1.37l-0.24,0.69l-0.24,0.91l-0.32,0.91l-0.16,0.69l-0.24,0.69l-0.16,0.69l-0.24,0.91l-0.24,0.99l-0.24,0.69l-0.16,0.61
		l-0.24,0.69l-0.24,0.91l-0.32,0.91l-0.16,0.76l-0.24,0.99l-0.16,0.91l-0.32,1.37l-0.24,0.76l-0.16,0.46l-0.24,0.76v0.76l0.48,0.23
		l1.03-0.31l0.87-0.46l0.72-0.38l0.56-0.38l0.63-0.46l0.56-0.53l0.4-0.31l0.64-0.61l0.56-0.46l0.48-0.46l0.56-0.46l0.48-0.53
		l0.4-0.53l0.95-1.07l0.48-0.46l0.4-0.53l0.48-0.61l0.4-0.61l0.71-1.22l0.8-1.22l0.87-1.68l0.4-0.69l0.4-0.61l0.95-1.83l0.71-0.46
		l0.95,0.07L809.47,741.64z M783.47,766.7l0.16-0.91l-0.4-0.23l-0.8,0.31l-0.64,0.38l-0.64,0.46l-0.56,0.38l-1.67,0.91l-0.56,0.46
		l-0.64,0.46l-1.27,1.22l-0.8,0.99l-0.72,1.07l-0.4,1.14l-0.08,0.91l0.16,0.69l0.72,0.69l1.03,0.46h1.03l0.8-0.23l1.27-0.76
		l0.56-0.61l0.4-0.61l0.48-0.53l0.4-0.61l0.4-0.76l0.32-0.69l0.24-0.53l0.24-0.76l0.32-0.91l0.32-1.14L783.47,766.7z"/>
</g>
<path class="st1" d="M191.49,802.93c51.42-0.9,102.84-1.32,154.25-1.66L500,800.76l154.25,0.5l77.13,0.61l77.13,1.07L731.38,804
	l-77.13,0.61L500,805.1l-154.25-0.51C294.33,804.25,242.91,803.83,191.49,802.93z"/>
<path class="st1" d="M703.09,436.2V132.26c29.74,15,29.74,15,29.74,15v339.02c0,0-129.95-20.82-211.65,70.62
	C581.98,452.16,703.09,436.2,703.09,436.2z"/>
<text transform="matrix(1 0 0 1 162.8625 866.2314)" class="st1 st2 st3">      We publish the topics YOU want to read about</text>
<text transform="matrix(1 0 0 1 777.7031 1284.3857)" style="font-family:'MyriadPro-Regular'; font-size:12px;">               </text>
<rect x="1274.02" y="264.23" style="fill:none;" width="3.06" height="0"/>
</svg>
